<?xml version="1.0" standalone="no"?>
<!DOCTYPE svg PUBLIC "-//W3C//DTD SVG 1.1//EN" "http://www.w3.org/Graphics/SVG/1.1/DTD/svg11.dtd" >
<svg>
<metadata>
Created by FontForge 20090622 at Mon Aug 29 11:09:21 2016
 By deploy user
Copyright (c) 1992 LaserGo Inc.
</metadata>
<defs>
<font id="Basil-Bold" horiz-adv-x="500" >
  <font-face 
    font-family="Basil"
    font-weight="700"
    font-stretch="normal"
    units-per-em="1000"
    panose-1="2 2 8 2 7 5 5 2 3 4"
    ascent="800"
    descent="-200"
    x-height="435"
    cap-height="668"
    bbox="-176 -276 1087 899"
    underline-thickness="90"
    underline-position="-55"
    unicode-range="U+0020-U+2215"
  />
<missing-glyph horiz-adv-x="724" 
d="M45 0v724h634v-724h-634zM634 45v634h-544v-634h544z" />
    <glyph glyph-name=".notdef" horiz-adv-x="724" 
d="M45 0v724h634v-724h-634zM634 45v634h-544v-634h544z" />
    <glyph glyph-name=".null" horiz-adv-x="0" 
 />
    <glyph glyph-name="nonmarkingreturn" horiz-adv-x="278" 
 />
    <glyph glyph-name="space" unicode=" " horiz-adv-x="278" 
 />
    <glyph glyph-name="exclam" unicode="!" horiz-adv-x="327" 
d="M247 76q0 -36 -24 -62t-61 -26q-35 0 -58.5 25.5t-23.5 61.5q0 33 24.5 56.5t58.5 23.5t59 -23t25 -56zM143 207q0 73 -6.5 132t-20.5 104.5l-23.5 78t-9.5 60.5q0 39 20.5 70t57.5 31q41 0 62.5 -28.5t21.5 -70.5q0 -23 -3 -41t-18 -71t-26.5 -123.5t-11.5 -141.5h-43z
" />
    <glyph glyph-name="quotedbl" unicode="&#x22;" horiz-adv-x="453" 
d="M146 399h-64l-43 268h151zM370 399h-64l-43 268h151z" />
    <glyph glyph-name="numbersign" unicode="#" horiz-adv-x="650" 
d="M558 663l-61 -146h118l-22 -57h-120l-33 -82h119l-24 -60h-120l-61 -144h-75l58 144h-96l-62 -144h-81l60 144h-123l21 60h126l33 82h-123l22 57h127l61 146h79l-60 -146h98l61 146h78zM394 460h-98l-32 -82h96z" />
    <glyph glyph-name="dollar" unicode="$" horiz-adv-x="549" 
d="M295 755v-75q68 0 130 -31.5t62 -94.5q0 -22 -15 -38t-39 -16q-38 0 -58 69t-80 69v-216q73 -40 111 -65t66 -65.5t28 -101.5q0 -90 -58 -144t-147 -54v-111h-48v109q-74 0 -141 29.5t-67 93.5q0 24 16.5 41.5t39.5 17.5q25 0 40.5 -19t23.5 -55t26 -52t62 -16v252
q-120 72 -155.5 101.5t-35.5 108.5q0 83 53.5 131t138.5 55l-1 77h48zM295 33q45 6 72 34t27 73q0 42 -26 67t-73 50v-224zM248 636q-39 -5 -65.5 -28.5t-26.5 -60.5q0 -29 18.5 -53t72.5 -49z" />
    <glyph glyph-name="percent" unicode="%" horiz-adv-x="925" 
d="M67 502q0 77 52 128t128 51q73 0 118.5 -53t45.5 -128q0 -71 -53 -122t-124 -51q-72 0 -119.5 50.5t-47.5 124.5zM165 502q0 -53 14 -89t58 -36q40 0 57.5 38.5t17.5 84.5q0 52 -13 91t-55 39t-60.5 -40t-18.5 -88zM699 719l-388 -753l-77 -1l387 753zM515 161
q0 77 51 128t128 51q73 0 119 -53t46 -128q0 -71 -53 -122t-124 -51q-72 0 -119.5 50.5t-47.5 124.5zM613 161q0 -52 14 -88.5t57 -36.5q40 0 58 39.5t18 83.5q0 52 -13 91t-56 39q-41 0 -59.5 -40t-18.5 -88z" />
    <glyph glyph-name="ampersand" unicode="&#x26;" horiz-adv-x="880" 
d="M446 79q-46 -45 -101.5 -71t-116.5 -26q-65 0 -114 35t-49 97q0 54 36 108t135 112q-26 37 -43 78.5t-17 81.5q0 82 48 134t129 52q61 0 104 -38t43 -98q0 -50 -33 -91t-85 -73q57 -76 129 -154l87 125q57 70 127 70q40 0 66 -24t26 -65q0 -31 -23 -55t-55 -24
q-27 0 -45.5 16t-20.5 43q0 23 -15 23q-18 0 -38 -28l-28 -45l-2 -3l-45 -70q32 -35 74 -73t94 -38q19 0 38 9.5t47 40.5l35 -27q-36 -52 -87 -85.5t-108 -33.5q-42 0 -83.5 18t-108.5 79zM356 415q26 24 40 58.5t14 70.5t-17.5 63t-51.5 27q-27 0 -44 -22t-17 -50
q0 -37 19 -69t57 -78zM412 112q-40 41 -80.5 90t-71.5 95q-28 -21 -45 -50t-17 -62q0 -47 35.5 -84.5t81.5 -37.5q27 0 51 13t46 36z" />
    <glyph glyph-name="quotesingle" unicode="'" horiz-adv-x="251" 
d="M160 399h-70l-43 268h156z" />
    <glyph glyph-name="parenleft" unicode="(" horiz-adv-x="330" 
d="M279 777l25 -21q-75 -94 -104.5 -191.5t-29.5 -227.5q0 -133 29 -228t105 -199l-25 -20q-107 105 -164.5 208.5t-57.5 231.5q0 133 56 236.5t166 210.5z" />
    <glyph glyph-name="parenright" unicode=")" horiz-adv-x="330" 
d="M51 777q110 -107 166 -209.5t56 -237.5q0 -128 -57 -230.5t-165 -209.5l-25 20q75 103 104.5 199t29.5 228q0 129 -29.5 227.5t-104.5 191.5z" />
    <glyph glyph-name="asterisk" unicode="*" horiz-adv-x="493" 
d="M246 513l-2 -24l6 -4q8 0 15 6.5t14 12t40.5 49t60.5 43.5q21 0 35 -13t14 -33q0 -48 -84.5 -57t-84.5 -28q0 -8 84.5 -22t84.5 -57q0 -20 -14 -35t-35 -15q-30 0 -70.5 53t-58.5 57l-6 -5q0 -20 20.5 -67.5t20.5 -70.5q0 -21 -13 -37t-35 -16t-35.5 15.5t-13.5 37.5
q0 18 20.5 61t20.5 74q0 8 -7 8q-9 -2 -54.5 -56t-70.5 -54q-21 0 -36.5 14.5t-15.5 35.5q0 42 71 52t94 21l3 6q0 11 -84 25t-84 57q0 19 14 34t34 15q25 0 69.5 -52t58.5 -59q8 2 9 4q0 25 -20.5 70t-20.5 68q0 20 13.5 36.5t32.5 16.5q21 0 35 -15t14 -35t-19.5 -60
t-19.5 -57z" />
    <glyph glyph-name="plus" unicode="+" 
d="M7 401h202v201h81v-201h202v-78h-202v-201h-81v201h-202v78z" />
    <glyph glyph-name="comma" unicode="," horiz-adv-x="281" 
d="M168 5q-18 -13 -40 -13q-33 0 -55.5 22.5t-22.5 56.5q0 36 24 59t59 23q43 0 70 -34t27 -78q0 -74 -48 -135t-121 -86l-16 29q53 28 88 66.5t35 89.5z" />
    <glyph glyph-name="hyphen" unicode="-" horiz-adv-x="312" 
d="M40 275h232v-117h-232v117z" />
    <glyph glyph-name="hyphen" unicode="&#xad;" horiz-adv-x="312" 
d="M40 275h232v-117h-232v117z" />
    <glyph glyph-name="period" unicode="." horiz-adv-x="276" 
d="M221 75q0 -36 -24 -62t-61 -26q-35 0 -58.5 25.5t-23.5 61.5q0 33 24.5 56.5t58.5 23.5t59 -23t25 -56z" />
    <glyph glyph-name="slash" unicode="/" horiz-adv-x="618" 
d="M565 741l-489 -816l-82 1l490 815h81z" />
    <glyph glyph-name="zero" unicode="0" horiz-adv-x="550" 
d="M508 333q0 -124 -59 -236.5t-173 -112.5t-173 112t-59 237q0 123 58.5 236t171.5 113q114 0 174 -112t60 -237zM356 333q0 70 -1.5 99.5t-7 82.5t-20.5 89t-52 36t-51 -35t-19 -79.5t-7 -95t-2 -97.5q0 -78 3 -120t9 -84t20 -73t49 -31q43 0 58.5 46t15.5 102
q0 36 2.5 93t2.5 67z" />
    <glyph glyph-name="one" unicode="1" horiz-adv-x="550" 
d="M115 626q61 5 111 18t104 39h31l-1 -92l1 -459q0 -57 12.5 -75.5t64.5 -18.5l20 -1v-37l-183 2l-160 -2v37q61 0 81 18.5t20 78.5v32v271l-1 69q0 58 -18 70t-82 12v38z" />
    <glyph glyph-name="two" unicode="2" horiz-adv-x="550" 
d="M169 122h140l159 2q11 0 11 -7l-2 -17l-32 -160h-39l4 22t2 21q-1 9 -19.5 12t-44.5 4t-59 1q-63 0 -121.5 -0.5t-128.5 -6.5v7q30 68 121 179.5t132 176t41 146.5q0 54 -23.5 94.5t-72.5 40.5q-39 0 -62.5 -24.5t-23.5 -64.5q0 -29 15.5 -50t43.5 -21q16 0 23.5 6.5
t12.5 6.5q6 0 7.5 -5t1.5 -9q0 -35 -27 -58t-63 -23q-52 0 -81 36.5t-29 89.5q0 76 65.5 119t146.5 43q91 0 154.5 -47.5t63.5 -136.5q0 -66 -28 -112.5t-85 -91.5l-88 -69q-70 -55 -82 -65.5t-33 -38.5z" />
    <glyph glyph-name="three" unicode="3" horiz-adv-x="550" 
d="M301 385v-7q83 0 136 -41.5t53 -122.5q0 -103 -86.5 -166.5t-192.5 -63.5q-60 0 -114 24.5t-54 77.5q0 24 16.5 41.5t41.5 17.5q33 0 68 -59t67 -59q55 0 78 53t23 116q0 56 -13.5 100.5t-56.5 44.5q-27 0 -52 -36t-46 -36q-12 0 -21.5 9.5t-9.5 21.5q0 15 88 80t88 149
q0 45 -19 74t-62 29q-29 0 -52 -18t-23 -45q0 -21 9 -36t29 -15q11 0 20 6t12 6q8 0 8 -13q0 -32 -24 -54t-57 -22q-37 0 -61 24t-24 60q0 75 67.5 116.5t148.5 41.5q70 0 118.5 -33.5t48.5 -100.5q0 -57 -45 -99.5t-107 -64.5z" />
    <glyph glyph-name="four" unicode="4" horiz-adv-x="550" 
d="M280 199l-22 -1l-21 1h-186h-32v58l330 418h75l-1 -38v-43l-2 -339h102v-56h-103v-78q0 -58 20 -70.5t79 -12.5v-38q-31 0 -103 2t-77 2q-28 0 -92 -2t-68 -2v38q54 0 76.5 13t22.5 63zM280 257v257l-203 -257l175 -1z" />
    <glyph glyph-name="five" unicode="5" horiz-adv-x="551" 
d="M156 369q26 27 65 41.5t79 14.5q82 0 139 -53t57 -135q0 -113 -81 -183t-197 -70q-62 0 -117 24.5t-55 78.5q0 24 17 40t41 16q33 0 68 -57.5t66 -57.5q57 0 81.5 54.5t24.5 119.5q0 90 -26 123.5t-74 33.5q-25 0 -52.5 -15.5t-27.5 -39.5l2 -27q0 -14 -9.5 -24.5
t-22.5 -10.5q-15 0 -23 11t-8 26q0 20 2.5 55t2.5 42l10 306h32q29 -21 69.5 -31.5t80.5 -10.5q59 0 88 13.5t45 38.5h32q-10 -82 -73.5 -125.5t-150.5 -43.5q-41 0 -80 9z" />
    <glyph glyph-name="six" unicode="6" horiz-adv-x="549" 
d="M198 391q21 21 53.5 31.5t64.5 10.5q83 0 138.5 -58.5t55.5 -143.5q0 -103 -65 -175t-168 -72q-125 0 -179 96.5t-54 232.5q0 153 69.5 262t214.5 109q52 0 98.5 -21.5t50.5 -68.5q0 -24 -15.5 -42.5t-39.5 -18.5q-35 0 -67.5 52.5t-61.5 52.5q-59 0 -77 -77t-18 -170z
M195 326q-4 -35 -4 -80v-12q0 -74 3 -99.5t13.5 -53t27 -41t40.5 -13.5q53 0 68 50.5t15 121.5v13q0 69 -14 116.5t-67 47.5q-25 0 -44.5 -13t-37.5 -37z" />
    <glyph glyph-name="seven" unicode="7" horiz-adv-x="550" 
d="M413 547h-202q-64 0 -80.5 -14.5t-38.5 -88.5h-39l58 293h39l-4 -23.5t-2 -20.5q0 -14 12 -19t30 -5h14h301v-30q-55 -99 -98.5 -228t-60.5 -238.5t-30.5 -149t-71.5 -39.5q-31 0 -50.5 22.5t-19.5 54.5q0 70 63 178l101.5 173z" />
    <glyph glyph-name="eight" unicode="8" horiz-adv-x="549" 
d="M187 322q-53 30 -82 73.5t-29 101.5q0 81 61.5 132.5t143.5 51.5q79 0 138.5 -39t59.5 -115q0 -45 -28 -79t-73 -60q54 -31 89 -80t35 -106q0 -97 -63.5 -157.5t-161.5 -60.5q-90 0 -156 42.5t-66 126.5q0 58 36.5 101t95.5 68zM340 408q21 21 32 50.5t11 59.5
q0 52 -28.5 85.5t-80.5 33.5q-41 0 -70.5 -24.5t-29.5 -65.5q0 -54 61 -89zM225 300q-33 -27 -49.5 -64.5t-16.5 -81.5q0 -56 33.5 -91.5t89.5 -35.5q51 0 86 29t35 78q0 65 -41 94t-137 72z" />
    <glyph glyph-name="nine" unicode="9" horiz-adv-x="550" 
d="M349 276q-26 -22 -53.5 -32.5t-61.5 -10.5q-88 0 -142 60.5t-54 149.5q0 100 66.5 169.5t165.5 69.5q119 0 176.5 -91t57.5 -217q0 -164 -66.5 -277.5t-218.5 -113.5q-55 0 -101.5 22t-46.5 72q0 22 16 39t39 17q35 0 67 -52.5t61 -52.5q48 0 71.5 60t23.5 188zM352 341
q2 21 3 63.5t1 63.5q0 67 -16 118.5t-68 51.5t-67.5 -48t-15.5 -114v-32q0 -67 14.5 -110.5t62.5 -43.5q59 0 86 51z" />
    <glyph glyph-name="colon" unicode=":" horiz-adv-x="277" 
d="M223 365q0 -36 -24 -62t-60 -26q-35 0 -58.5 25.5t-23.5 61.5q0 34 24 57t58 23t59 -23t25 -56zM223 75q0 -36 -24 -62t-61 -26q-35 0 -58.5 25.5t-23.5 61.5q0 33 24.5 56.5t58.5 23.5t59 -23t25 -56z" />
    <glyph glyph-name="semicolon" unicode=";" horiz-adv-x="275" 
d="M215 366q0 -36 -24 -62t-60 -26q-35 0 -58.5 25.5t-23.5 61.5q0 33 24 56t58 23q33 0 58.5 -22.5t25.5 -55.5zM164 5q-18 -13 -40 -13q-33 0 -55.5 22.5t-22.5 56.5q0 36 24 59t59 23q43 0 70 -34t27 -78q0 -74 -48 -135t-121 -86l-16 29q53 28 88 66.5t35 89.5z" />
    <glyph glyph-name="less" unicode="&#x3c;" 
d="M462 636v-66l-245 -154l245 -167v-175l-423 289v9z" />
    <glyph glyph-name="equal" unicode="=" 
d="M7 476h486v-76h-486v76zM7 324h486v-76h-486v76z" />
    <glyph glyph-name="greater" unicode="&#x3e;" 
d="M39 74v66l245 154l-245 167v175l423 -290v-8z" />
    <glyph glyph-name="question" unicode="?" horiz-adv-x="439" 
d="M249 73q0 -35 -24.5 -61.5t-59.5 -26.5t-59 26t-24 61q0 33 24.5 56.5t58.5 23.5t59 -23t25 -56zM142 205v189q0 16 14 16l46 -1q61 0 99 15.5t38 67.5q0 39 -26 66t-65 27q-15 0 -51.5 -7.5t-51.5 -7.5q-27 0 -48 13t-21 40q0 28 22 42.5t52 14.5q100 0 175 -71t75 -171
q0 -76 -52 -113t-132 -37l-32 1v-84h-42z" />
    <glyph glyph-name="at" unicode="@" horiz-adv-x="785" 
d="M416 159q-30 -25 -56 -39t-58 -14q-50 0 -79.5 35t-29.5 85q0 100 62 189.5t158 89.5q49 0 76 -39l4 9q3 8 9 10.5t17 2.5l45 -1q16 0 21.5 -3.5t5.5 -12.5q0 -4 -55.5 -126t-55.5 -167q0 -12 10 -20t22 -8q69 0 118 82t49 156q0 110 -81.5 181.5t-193.5 71.5
q-126 0 -213.5 -93.5t-87.5 -219.5q0 -137 83 -240t217 -103q78 0 147 38.5t96.5 75t33 41.5t14.5 5q10 0 18 -7t8 -17q0 -14 -15.5 -36.5t-85 -83t-216.5 -60.5q-156 0 -262.5 112.5t-106.5 269.5q0 148 111 254t260 106q133 0 237 -83.5t104 -214.5q0 -107 -75.5 -193.5
t-181.5 -86.5q-30 0 -51.5 13t-21.5 41zM295 198q0 -17 7.5 -25t17.5 -8q24 0 41 18.5t37 56t41 90t21 84.5q0 15 -5 25t-18 10q-54 0 -98 -93t-44 -158z" />
    <glyph glyph-name="A" unicode="A" horiz-adv-x="751" 
d="M354 682h49l15 -39l88 -215l105 -260q30 -70 52 -99.5t73 -29.5v-39l-185 3l-161 -3v38q35 0 60.5 7t25.5 32q0 28 -13.5 61l-26.5 64l-1 5h-224q-18 -39 -27 -67t-9 -44q0 -34 23 -46.5t61 -12.5v-38l-133 3l-111 -2v37q40 7 65.5 27t57.5 95zM230 255h186l-90 234
l-24 -60z" />
    <glyph glyph-name="B" unicode="B" horiz-adv-x="715" 
d="M431 357q97 -13 160.5 -53t63.5 -126q0 -103 -88 -140.5t-207 -37.5l-91 2q-38 0 -115 -1t-115 -1v39q57 7 76 24t19 73v21v350q0 75 -14.5 95t-80.5 26v39l146 -3l161 2q107 0 186.5 -31t79.5 -118q0 -73 -48.5 -107.5t-132.5 -52.5zM286 375q78 0 119.5 24.5t41.5 95.5
q0 125 -126 125q-18 0 -27 -3t-9 -18l1 -15v-209zM286 328v-157q0 -63 15 -93t71 -30q55 0 81 36.5t26 94.5q0 75 -34.5 112.5t-109.5 37.5z" />
    <glyph glyph-name="C" unicode="C" horiz-adv-x="715" 
d="M588 617l15 55h44l4 -98l4 -115h-44q-19 77 -66 124t-123 47q-105 0 -156 -91t-51 -204q0 -124 48.5 -210t163.5 -86q79 0 128 54t65 136h45l-2 -123l2 -106h-45l-21 59q-42 -37 -98.5 -56.5t-115.5 -19.5q-158 0 -253.5 95.5t-95.5 254.5q0 150 105 250t256 100
q53 0 99.5 -16.5t91.5 -49.5z" />
    <glyph glyph-name="D" unicode="D" horiz-adv-x="768" 
d="M39 627v39l126 -2l103 2l92 1q160 0 264.5 -91t104.5 -249q0 -159 -89 -243t-251 -84l-204 3q-26 0 -84.5 -2t-62.5 -2l1 39q59 0 77 27t18 89v22v327q0 75 -14 95.5t-81 28.5zM289 584v-414q0 -59 20 -90t77 -31q101 0 134 80t33 199q0 148 -46.5 219.5t-185.5 71.5
q-21 0 -26.5 -5.5t-5.5 -29.5z" />
    <glyph glyph-name="E" unicode="E" horiz-adv-x="660" 
d="M284 321l-1 -117q0 -89 19 -123t101 -34q83 0 126.5 33t55.5 115h41q0 -41 -2.5 -104t-2.5 -72l1 -19l-116 -1l-193 3q-46 0 -140 -1t-141 -1v37q46 0 64.5 12t23.5 33t6.5 57.5t1.5 50.5v24l1 259v24v36q-3 25 -6 47.5t-28 35.5t-62 13v39q53 0 176.5 -2t131.5 -2l240 3
v-26q0 -37 0.5 -71t4.5 -78l-43 1q-15 70 -53 97.5t-112 27.5l-71 -2q-13 0 -17.5 -8t-4.5 -22v-12l-1 -206l24 1q58 0 80 24.5t34 86.5h42q0 -22 -2 -73.5t-2 -54.5q0 -32 2.5 -82.5t2.5 -57.5l-42 -1q-12 67 -40.5 88.5t-98.5 21.5z" />
    <glyph glyph-name="F" unicode="F" horiz-adv-x="606" 
d="M282 317v-165q0 -74 17 -90t91 -23v-38l-193 2l-164 -3v39q47 4 65 9.5t23.5 27t6.5 36.5t1 35v19v322v35q0 62 -18 80.5t-78 24.5v39l205 -2l347 3q0 -30 4 -88t4 -87h-42q-14 69 -56.5 96.5t-117.5 27.5l-66 -1q-28 0 -28 -29v-223h11q28 0 47 2.5t36 14.5t31 45t14 50
h42l-3 -137l3 -132h-42q0 46 -27 78t-73 32h-40z" />
    <glyph glyph-name="G" unicode="G" horiz-adv-x="769" 
d="M763 284v-39l-13 -1q-28 0 -44 -10t-16 -37v-33v-111l-313 -70q-144 0 -245 89t-101 232q0 160 95 268.5t254 108.5q58 0 106 -15.5t93 -50.5l16 57h45l7 -213h-44q-18 74 -66.5 122t-121.5 48q-113 0 -159.5 -96.5t-46.5 -223.5q0 -111 46 -193t148 -82q131 0 131 127
q0 48 -16 66t-68 18v39h313z" />
    <glyph glyph-name="H" unicode="H" horiz-adv-x="877" 
d="M589 366v147v25q0 58 -19 74t-76 16v39l173 -3l171 3v-39q-31 0 -50.5 -4.5t-29 -20.5t-12 -31t-2.5 -38v-18v-346v-31q0 -29 4 -48t16.5 -32t30.5 -17t43 -4v-38q-28 0 -95 2t-71 2q-30 0 -101.5 -2t-76.5 -2v38q48 5 68 14t23 36t3.5 46t0.5 29v152h-301v-153v-16
q0 -30 3 -49.5t14.5 -35t35.5 -19.5q30 -2 43 -4v-38l-183 3l-163 -3v38q48 0 67.5 13t23 36t4.5 43t1 45v333q0 72 -16 96t-80 24v39q30 0 99.5 -2t74.5 -2q30 0 98.5 2t73.5 2v-39l-12 -1q-58 0 -71 -20.5t-13 -84.5v-156h301z" />
    <glyph glyph-name="I" unicode="I" horiz-adv-x="440" 
d="M40 0v39q63 0 83 25.5t20 89.5v32v325q0 74 -17.5 96t-85.5 22v39q31 0 104 -2t78 -2q31 0 103 2t77 2v-39l-21 -1q-54 0 -68.5 -21t-14.5 -108v-309l-1 -42q0 -64 21.5 -86.5t83.5 -22.5v-39l-189 3z" />
    <glyph glyph-name="J" unicode="J" horiz-adv-x="439" 
d="M49 627v38l182 -2q29 0 95.5 2t71.5 2v-39l-11 -1q-48 -4 -64.5 -23t-16.5 -67v-49l5 -485q0 -72 -8 -117.5t-38.5 -82.5t-76.5 -55.5t-94 -18.5q-89 0 -131.5 27.5t-42.5 71.5q0 23 17 40t41 17q41 0 66 -54t51 -54q29 0 41 23.5t16 58.5q0 22 2 72.5t2 53.5l-1 122
l-3 372v32q0 63 -18 89.5t-85 26.5z" />
    <glyph glyph-name="K" unicode="K" horiz-adv-x="768" 
d="M283 240v-110q0 -54 18 -72t72 -18v-40l-170 3l-170 -3v39q57 0 76 22t19 79v13v349q0 68 -16.5 97.5t-78.5 29.5v38l158 -3l177 3v-39h-7q-54 0 -66 -23t-12 -95v-203q108 115 163.5 187t55.5 100q0 26 -39 31q-17 1 -34 3v39l128 -2l131 2v-38l-11 -1q-58 0 -131 -82
l-107 -133l91.5 -114.5l88.5 -115l66 -90.5q46 -54 83 -54v-39l-159 3l-173 -3v39h4q28 0 48 4.5t20 23.5q0 14 -7.5 26.5t-24.5 34.5l-64 87l-33.5 43.5t-36.5 44.5z" />
    <glyph glyph-name="L" unicode="L" horiz-adv-x="660" 
d="M33 0v39l10 -1q51 0 68 27t17 82v352q0 71 -16 100t-79 29v40q30 0 101 -2t76 -2q29 0 97 2t73 2v-39q-67 0 -81 -18t-14 -62l-1 -38v-327q0 -81 27 -108t108 -27q79 0 121 35t57 112h45q0 -38 -3.5 -106.5t-3.5 -89.5h-225l-185 2z" />
    <glyph glyph-name="M" unicode="M" horiz-adv-x="934" 
d="M184 510v-325q0 -70 17 -108.5t78 -38.5v-38l-130 2l-110 -2v38q61 6 77.5 35t16.5 97v8l3 411q-2 2 -3.5 5t-3.5 4l-21 20q-8 7 -25 8.5t-44 1.5v39l127 -3l113 3l89 -214l42.5 -103l63.5 -148l93.5 227l90.5 238l107 -1l135 1v-38q-30 0 -50 -4t-28.5 -14.5t-13 -21
t-6.5 -26.5l-3 -76v-337q0 -68 15 -90t77 -22h9v-38l-184 3l-160 -3v38q59 0 76.5 22.5t17.5 81.5v362l-63.5 -160l-69.5 -169l-73 -175h-49l-84 210z" />
    <glyph glyph-name="N" unicode="N" horiz-adv-x="824" 
d="M136 561q-22 33 -43 48t-58 19v40l103 -3l108 3l123.5 -137l133.5 -153.5l143 -166.5v201l-1 84q0 82 -24.5 107.5t-70.5 25.5v39l126 -2l114 2v-39q-58 0 -76 -37t-18 -103v-252l-2 -159l-2 -96h-49l-141 168l-316 361v-18v-183l-1 -73l2 -103q0 -50 20 -68t72 -28v-38
l-128 3l-112 -3v38q64 6 80 37.5t16 104.5v36v146v115z" />
    <glyph glyph-name="O" unicode="O" horiz-adv-x="824" 
d="M791 333q0 -156 -110.5 -253t-268.5 -97t-268 96t-110 252q0 152 112 250t266 98q160 0 269.5 -94t109.5 -252zM612 330q0 123 -45.5 212.5t-155.5 89.5t-153.5 -89.5t-43.5 -211.5q0 -121 44 -210.5t154 -89.5q115 0 157.5 85t42.5 214z" />
    <glyph glyph-name="P" unicode="P" horiz-adv-x="660" 
d="M287 304v-157q0 -66 19.5 -87t84.5 -21v-39l-192 3l-159 -3v40q59 0 77 22.5t18 82.5v21v343q0 66 -17.5 92.5t-77.5 26.5v39l82 -3l211 3q128 0 214.5 -34t86.5 -143q0 -103 -82.5 -145t-196.5 -42zM286 352q89 0 133.5 27.5t44.5 109.5q0 68 -35 99t-104 31
q-23 0 -30.5 -5t-7.5 -26z" />
    <glyph glyph-name="Q" unicode="Q" horiz-adv-x="823" 
d="M379 -13q-148 0 -247 95t-99 247q0 150 110 251t261 101q74 0 136 -18t120 -62.5t94 -118t36 -152.5q0 -97 -47.5 -167t-122.5 -115t-153 -72.5l-132 -46.5v-5l29.5 3t26.5 2q60 0 177.5 -37t157.5 -37q30 0 57 10t43 32q7 12 11 17.5t13 5.5q15 0 15 -18
q0 -30 -15.5 -63.5t-37.5 -57.5t-57 -36.5t-71 -12.5q-77 0 -151 40l-123.5 77.5t-117.5 39.5q-32 0 -77.5 -21.5t-56.5 -21.5q-10 0 -18 8t-8 19q0 15 23.5 28t68.5 25.5t82.5 27t72.5 33.5zM611 330q0 124 -47 213.5t-159 89.5q-107 0 -150 -91.5t-43 -211.5
q0 -123 48 -212.5t160 -89.5q106 0 148.5 90.5t42.5 211.5z" />
    <glyph glyph-name="R" unicode="R" horiz-adv-x="769" 
d="M293 297l-1 -11l1 -143q0 -61 19.5 -82.5t80.5 -21.5v-39l-190 3l-164 -3v39q61 0 81.5 21.5t20.5 82.5l2 358q0 73 -17.5 99.5t-85.5 26.5v38h94q55 0 111 1l112 2q121 0 205 -34t84 -136q0 -70 -42.5 -110t-115.5 -57q32 -33 52.5 -59.5t81.5 -111t82.5 -106
t53.5 -21.5v-39q-47 0 -120 2.5t-85 2.5l-92 134q-48 72 -79.5 112t-42.5 45.5t-20 6.5t-19 1zM293 346l45 -1q67 0 103.5 33.5t36.5 99.5q0 70 -33 106t-103 36q-35 0 -42 -6t-7 -39v-229z" />
    <glyph glyph-name="S" unicode="S" horiz-adv-x="550" 
d="M415 629l12 44h45l6 -187h-46q-12 64 -55 106t-105 42q-40 0 -71.5 -22t-31.5 -62q0 -59 122.5 -119.5t174 -97t51.5 -142.5q0 -94 -70 -150.5t-168 -56.5q-54 0 -99.5 16.5t-81.5 52.5l-14 -53h-45l3 97l-3 113h45q17 -74 62 -125.5t115 -51.5q50 0 86.5 26.5t36.5 75.5
q0 67 -86 113l-162 79q-87 58 -87 155q0 96 60.5 148t158.5 52q83 0 147 -53z" />
    <glyph glyph-name="T" unicode="T" horiz-adv-x="699" 
d="M23 670q54 0 163 -3t165 -3q65 0 178.5 3.5t145.5 3.5q0 -33 3.5 -100t3.5 -91h-41q-5 55 -35 89t-62.5 41t-85.5 7q-29 0 -29 -26v-16v-416q0 -69 16 -94.5t78 -25.5h9v-39l-190 3l-173 -3v38q60 0 82.5 20.5t22.5 79.5v15v414v25q0 15 -5 20t-24 5q-89 0 -131.5 -27
t-55.5 -112h-42q0 34 3.5 101t3.5 91z" />
    <glyph glyph-name="U" unicode="U" horiz-adv-x="825" 
d="M29 668q30 0 98.5 -2t73.5 -2q30 0 100 2t75 2v-39q-31 0 -53 -5.5t-30 -23t-10.5 -53t-2.5 -79.5v-31v-161q0 -114 33.5 -169.5t140.5 -55.5q116 0 156 66t40 188v168v11q0 73 -16 109t-80 36v39l121 -2l120 2v-39q-25 0 -46 -8t-31 -25t-14 -45.5t-4 -85.5v-177
q0 -151 -68 -227t-220 -76q-130 0 -208 57.5t-78 183.5l-2 256v34q0 64 -17.5 88.5t-77.5 24.5v39z" />
    <glyph glyph-name="V" unicode="V" horiz-adv-x="750" 
d="M425 183l97 226.5t43 162.5q0 33 -20.5 43t-64.5 14v39l132 -3l123 3v-39q-59 0 -83 -38.5t-60 -129.5l-69 -168l-64.5 -157.5l-63.5 -150.5h-48l-66.5 156.5t-66 163.5l-62.5 166t-54 129.5t-82 27.5v40q28 0 94 -2t72 -2l184 3v-39h-7q-35 0 -57.5 -7t-22.5 -34
q0 -28 21.5 -86.5t53.5 -134.5l47 -119z" />
    <glyph glyph-name="W" unicode="W" horiz-adv-x="988" 
d="M501 422l-47.5 -141l-40.5 -115l-56 -158l-9 -24h-50q-79 212 -144 424l-34 107q-18 61 -35.5 86.5t-66.5 25.5v39q26 0 87.5 -2t65.5 -2q31 0 101.5 2t75.5 2v-40h-11q-32 0 -52.5 -7.5t-20.5 -34.5q0 -30 5 -48t27 -80l30 -96l50 -155l78.5 238t68.5 224h47l54 -148
l52.5 -150t50.5 -158q43 120 71.5 211.5t28.5 149.5q0 29 -25 42t-56 13v40l106 -3l117 3v-40q-16 0 -29.5 -4.5t-29 -21.5t-38.5 -93.5l-61 -201t-113 -322.5h-49l-14 40l-49 147l-63 186z" />
    <glyph glyph-name="X" unicode="X" horiz-adv-x="753" 
d="M338 260l-82 -94t-44 -84q0 -26 20.5 -34.5t51.5 -8.5v-40l-135 3l-125 -3v39q40 6 68 25t82.5 82l132.5 154l-158 215q-44 59 -69 84t-68 30v39l165 -3l187 3v-40h-17q-23 0 -41 -6.5t-18 -24.5q0 -21 17 -46l32 -39l73 -96q53 61 85 103.5t32 70.5q0 24 -23.5 32
t-54.5 8l1 39l125 -3l134 3l1 -39q-42 -4 -71.5 -24.5t-62.5 -62l-68.5 -87.5t-67.5 -81l209 -276q22 -29 43.5 -43.5t53.5 -14.5v-39l-175 2q-32 0 -104.5 -2t-77.5 -2l1 39q52 5 66.5 8t14.5 23q0 30 -52.5 93.5z" />
    <glyph glyph-name="Y" unicode="Y" horiz-adv-x="698" 
d="M271 253l-74 133l-64 119l-45 80q-31 43 -75 43v39l159 -3l168 3v-39h-14q-26 0 -44.5 -6.5t-18.5 -26.5q0 -33 48.5 -118l89.5 -153l86 137t51 118q0 28 -21.5 38.5t-53.5 10.5v39l118 -1l106 3v-40q-35 -5 -49.5 -18t-39.5 -54l-103 -175l-59 -94l-9 -17v-134
q0 -58 21 -78t78 -20v-39l-177 3l-176 -3v38q60 0 79 23.5t19 84.5v107z" />
    <glyph glyph-name="Z" unicode="Z" horiz-adv-x="604" 
d="M389 619h-87q-98 0 -144.5 -23t-64.5 -111h-42l6 181l512 1v-37l-94 -150l-274 -433l108 1q102 0 152 29.5t66 123.5h42l-12 -201l-274 -1h-265v36l61 96l78 123z" />
    <glyph glyph-name="bracketleft" unicode="[" horiz-adv-x="441" 
d="M122 783h283v-36h-111q-34 0 -45.5 -12.5t-11.5 -47.5v-716q0 -33 15 -42t50 -9h103v-36h-283v899z" />
    <glyph glyph-name="backslash" unicode="\" horiz-adv-x="618" 
d="M53 741h81l490 -815l-82 -1z" />
    <glyph glyph-name="bracketright" unicode="]" horiz-adv-x="441" 
d="M319 783v-899h-283v36h103q35 0 50 9t15 42v716q0 35 -11.5 47.5t-45.5 12.5h-111v36h283z" />
    <glyph glyph-name="asciicircum" unicode="^" 
d="M531 277h-66l-154 245l-167 -245h-175l289 423h9z" />
    <glyph glyph-name="underscore" unicode="_" 
d="M7 -92h486v-78h-486v78z" />
    <glyph glyph-name="grave" unicode="`" 
d="M284 645l93 -151l-253 125v25z" />
    <glyph glyph-name="a" unicode="a" horiz-adv-x="495" 
d="M281 50q-29 -29 -65.5 -46.5t-76.5 -17.5q-52 0 -84 29t-32 80q0 61 51 96t105 54.5l81 29.5q24 13 24 45q0 40 -12.5 60.5t-50.5 20.5q-36 0 -62 -55t-61 -55q-25 0 -41.5 15.5t-16.5 40.5q0 52 57 74t118 22q103 0 153 -28t50 -122l-3 -192l-1 -21q0 -8 4 -17t17 -9
q9 0 17.5 5t16.5 13l22 -30q-25 -26 -52 -41t-61 -15q-39 0 -64 14t-33 50zM280 140l1 80q0 15 -7 15q-36 0 -73 -34t-37 -70q0 -30 11.5 -48t39.5 -18q32 0 48.5 21.5t16.5 53.5z" />
    <glyph glyph-name="b" unicode="b" horiz-adv-x="544" 
d="M198 395q28 23 56.5 35t61.5 12q95 0 153 -64t58 -160t-65 -162t-161 -66q-39 0 -73 12.5t-61 38.5l-92 -52h-14l5 525v54q0 40 -13.5 53.5t-51.5 13.5v36q29 3 111.5 15.5t87.5 12.5zM199 223l1 -111q0 -74 74 -74q63 0 85.5 55.5t22.5 129.5q0 65 -23.5 113t-80.5 48
q-51 0 -65 -33t-14 -92v-36z" />
    <glyph glyph-name="c" unicode="c" horiz-adv-x="489" 
d="M450 85q-32 -48 -86 -73.5t-114 -25.5q-101 0 -162.5 61.5t-61.5 163.5q0 98 69.5 165.5t169.5 67.5q63 0 121.5 -21t58.5 -72q0 -24 -15.5 -41.5t-39.5 -17.5q-36 0 -63.5 54.5t-62.5 54.5q-54 0 -70.5 -58t-16.5 -131q0 -70 27.5 -119t90.5 -49q37 0 68 18.5t53 50.5z
" />
    <glyph glyph-name="d" unicode="d" horiz-adv-x="598" 
d="M373 384v137v34q0 51 -12 68.5t-59 17.5h-7v36q24 0 37 1t68 7q23 0 62.5 7.5t45.5 8.5v-64v-116l-3 -347l-1 -32q0 -39 11.5 -60t47.5 -21h14v-34l-86 -12q-46 -8 -69 -16t-30 -10q-9 0 -11.5 26t-2.5 53h-5q-28 -39 -63 -58.5t-83 -19.5q-91 0 -148 66.5t-57 159.5
q0 91 58.5 159.5t148.5 68.5q46 0 78 -13.5t66 -46.5zM372 224q0 71 -16 114t-75 43q-62 0 -86 -46.5t-24 -115.5q0 -68 22.5 -115t81.5 -47t78 48t19 119z" />
    <glyph glyph-name="e" unicode="e" horiz-adv-x="498" 
d="M179 236l-1 -8q0 -80 30.5 -131t105.5 -51q36 0 66.5 17.5t50.5 48.5l35 -28q-34 -48 -83 -73t-108 -25q-101 0 -174 58.5t-73 158.5q0 105 67 175t172 70q88 0 147 -50.5t59 -137.5q0 -16 -2.5 -20t-16.5 -4h-275zM184 281h137q24 0 24 22q0 40 -20.5 71t-58.5 31
q-41 0 -63.5 -37t-22.5 -82z" />
    <glyph glyph-name="f" unicode="f" horiz-adv-x="419" 
d="M97 379h-75v45h75l-1 33q0 121 42 181.5t157 60.5q56 0 98 -14.5t42 -60.5q0 -24 -16 -41t-42 -17q-19 0 -34 13t-22 33q-11 24 -18 34.5t-22 10.5q-17 0 -27 -11.5t-14 -29.5t-6 -46t-2 -55l2 -91h127v-45h-127l1 -227q0 -86 11 -95.5t91 -21.5v-35l-175 3l-140 -3v36
q47 0 61.5 20t14.5 69v14z" />
    <glyph glyph-name="g" unicode="g" horiz-adv-x="551" 
d="M146 143v4q-43 17 -68 54t-25 83q0 73 57.5 117t133.5 44q42 0 73 -7.5t64 -27.5q39 45 102 45q24 0 42 -13.5t18 -37.5q0 -20 -12.5 -34.5t-31.5 -14.5q-21 0 -39 18.5t-26 19.5q-15 0 -27 -9q38 -44 38 -100q0 -84 -64 -120t-156 -36q-27 0 -48 -8.5t-21 -31.5
q0 -18 13.5 -27t49.5 -9q128 0 204.5 -26.5t76.5 -129.5q0 -93 -73.5 -132.5t-174.5 -39.5q-106 0 -160.5 33.5t-54.5 85.5q0 28 18.5 49.5t46.5 21.5q16 0 32 -8t16 -22l-6 -4q-21 -7 -21 -34q0 -44 39.5 -62t91.5 -18q57 0 104 20.5t47 70.5q0 22 -12.5 40.5t-33.5 24.5
q-118 5 -209.5 15.5t-91.5 99.5q0 38 25 67t63 39zM311 285q0 49 -12 85.5t-51 36.5t-50.5 -35.5t-11.5 -85.5t12 -84.5t52 -34.5q44 0 52.5 44.5t8.5 73.5z" />
    <glyph glyph-name="h" unicode="h" horiz-adv-x="608" 
d="M236 372q59 72 150 72q74 0 108 -35t34 -109v-28l-4 -166v-13q0 -16 2.5 -29t9.5 -20.5t19 -9.5t24 -2h9v-35l-142 2l-116 -1v34q34 0 46.5 11.5t12.5 43.5v21v162q0 45 -11.5 76t-50.5 31q-57 0 -75.5 -45t-18.5 -111v-107q0 -41 10 -61t48 -20v-33l-139 2l-120 -2v35
q39 0 51.5 15.5t12.5 54.5v14v403v33q0 27 -1.5 39t-9.5 21.5t-23.5 12t-29.5 4.5v36q56 5 100.5 12.5t94.5 20.5h8l-1 -53z" />
    <glyph glyph-name="i" unicode="i" horiz-adv-x="313" 
d="M26 417l92 9q16 3 59.5 14t54.5 11l1 -27l-1 -32l-1 -273q0 -48 12 -65.5t57 -17.5v-36l-152 3l-122 -3v35q42 5 55 15.5t13 49.5v27v165q0 50 -11 66.5t-57 22.5v36zM231 624q0 -32 -22.5 -55.5t-54.5 -23.5q-31 0 -54 22t-23 54t21.5 55.5t53.5 23.5q31 0 55 -22
t24 -54z" />
    <glyph glyph-name="j" unicode="j" horiz-adv-x="316" 
d="M27 412l42.5 3.5t41.5 5.5t70 17t61 13v-449q0 -133 -38.5 -205t-160.5 -72q-52 0 -95 16t-43 60q0 24 15 40t39 16q37 0 59 -45t40 -45q15 0 25.5 9.5t15 26.5t6.5 38.5t2 42.5l-1 56v325v10q0 67 -12 80.5t-67 21.5v35zM237 626q0 -31 -22 -55t-54 -24t-54.5 22.5
t-22.5 53.5q0 32 21.5 55.5t53.5 23.5q31 0 54.5 -22.5t23.5 -53.5z" />
    <glyph glyph-name="k" unicode="k" horiz-adv-x="558" 
d="M231 160l1 -43q0 -51 8.5 -63t55.5 -20v-34l-130 1l-134 -2v35q32 0 48 13t16 44v57v312l-1 85q0 50 -10 65t-53 21v35q54 5 100 12.5t91 21.5h8v-69v-414q45 42 90.5 92t45.5 64q0 21 -28 22.5t-33 4.5v36l105 -3l119 3v-36q-55 -9 -84 -32t-95 -89l50 -66l106 -137
q24 -31 30.5 -36.5t20.5 -5.5v-34l-73 2l-81 -1l-65 89l-73 103z" />
    <glyph glyph-name="l" unicode="l" horiz-adv-x="324" 
d="M26 668q106 9 198 34h10l-2 -54v-510l-1 -38q0 -37 16 -50.5t54 -13.5v-36l-148 3l-127 -3v35q41 0 55 16t14 56l-1 39v347l1 42q0 56 -10.5 76.5t-58.5 20.5v36z" />
    <glyph glyph-name="m" unicode="m" horiz-adv-x="870" 
d="M26 413q48 5 93.5 14t89.5 23h6l3 -86h5q20 38 62 59t89 21t79.5 -18.5t46.5 -59.5h5q23 38 65 58t90 20q69 0 102 -36t33 -105l-1 -74l-3 -110v-22q0 -33 10 -47.5t45 -14.5h9v-36q-25 0 -82.5 2t-61.5 2q-18 0 -61.5 -2t-46.5 -2v34h5q34 0 42 12.5t8 51.5q0 30 1 90.5
t1 90.5q0 46 -11.5 72.5t-50.5 26.5q-41 0 -65.5 -35.5t-24.5 -116.5v-116q0 -32 6 -54t50 -22v-34l-134 3l-112 -3v35h7q14 0 21.5 1.5t15 8t10 24t2.5 43.5v29v129q0 50 -10 78.5t-51 28.5q-52 0 -71 -46.5t-19 -106.5v-117q0 -36 11 -54.5t44 -18.5v-34l-130 3l-124 -3
v36q40 0 52 15t12 57l1 94l-1 105q0 44 -10 54.5t-52 17.5v35z" />
    <glyph glyph-name="n" unicode="n" horiz-adv-x="607" 
d="M28 413q53 6 96.5 14t86.5 22h7l4 -45.5t2 -40.5h4q24 40 68 60.5t93 20.5q74 0 105.5 -40t31.5 -116v-29l-3 -140l-1 -27q0 -36 14 -46.5t50 -10.5v-35l-132 2l-126 -3v34q35 0 46.5 10.5t11.5 42.5l1 41v127v16q0 49 -11 77.5t-50 28.5q-56 0 -77 -46t-21 -109v-107
q0 -43 11 -62t50 -19v-34q-23 0 -70 2t-71 2q-21 0 -69 -2t-51 -2v35q39 4 51.5 13.5t12.5 44.5l1 48v128v11q0 32 -1.5 48.5t-10 31t-25.5 16l-28 2.5v36z" />
    <glyph glyph-name="o" unicode="o" horiz-adv-x="549" 
d="M524 218q0 -99 -75 -165t-175 -66q-106 0 -178 63.5t-72 168.5q0 96 75.5 161.5t173.5 65.5q99 0 175 -65t76 -163zM373 218q0 78 -18.5 132.5t-80.5 54.5q-59 0 -79 -57.5t-20 -130.5q0 -79 18 -133.5t80 -54.5t81 56t19 133z" />
    <glyph glyph-name="p" unicode="p" horiz-adv-x="605" 
d="M227 42l1 -195q0 -55 12.5 -68.5t66.5 -18.5v-36l-159 3l-129 -3v36q50 6 62 18.5t12 40.5l1 62v233l-3 154v24q0 25 -3.5 45.5t-13.5 30.5t-25.5 12.5t-29.5 4.5v36q22 0 30 1t35.5 5.5t70.5 16t59 11.5q4 -39 4 -88h6q32 39 66.5 57.5t83.5 18.5q87 0 144 -67.5
t57 -156.5q0 -92 -57.5 -161t-148.5 -69q-41 0 -76.5 13.5t-61.5 41.5zM426 207q0 72 -21 120t-83 48q-56 0 -76.5 -42t-20.5 -106v-34q0 -89 24.5 -116.5t73.5 -27.5q56 0 79.5 47.5t23.5 110.5z" />
    <glyph glyph-name="q" unicode="q" horiz-adv-x="555" 
d="M350 44q-26 -29 -57 -42t-68 -13q-90 0 -145.5 64.5t-55.5 155.5q0 100 64.5 167.5t164.5 67.5q79 0 140 -50l78 50h16l-1 -27l1 -32l-3 -514v-45q0 -30 7.5 -45t33.5 -18l23 -3v-36l-150 3l-125 -2v35q42 5 59.5 12.5t17.5 67.5v204zM354 214v20q0 45 -1.5 68.5t-8 46.5
t-26 37.5t-44.5 14.5q-63 0 -84 -57.5t-21 -133.5q0 -89 26 -124.5t72 -35.5q57 0 72 46t15 118z" />
    <glyph glyph-name="r" unicode="r" horiz-adv-x="440" 
d="M220 359q27 41 58 63.5t74 22.5q31 0 53 -18t22 -48q0 -28 -17 -47t-44 -19q-29 0 -41 18.5t-17.5 26t-18.5 7.5q-36 0 -48.5 -43t-12.5 -92l2 -111q0 -54 11 -67t63 -18v-34l-147 2l-130 -3v35q36 3 51 13.5t15 43.5v36v107v12q0 35 -2.5 63t-10.5 43.5t-22 20t-34 4.5
v36q28 3 56.5 7t45.5 8t44.5 13.5t40.5 9.5z" />
    <glyph glyph-name="s" unicode="s" horiz-adv-x="439" 
d="M45 141h41q15 -47 53 -79.5t87 -32.5q30 0 51.5 15t21.5 42q0 37 -122 85t-122 143q0 62 45 97.5t110 35.5q63 0 113 -37l16 34h38v-133h-38q-18 42 -48.5 68t-72.5 26q-25 0 -45 -11t-22 -35q0 -36 85 -70.5t124.5 -60t39.5 -98.5q0 -70 -48.5 -106.5t-120.5 -36.5
q-74 0 -129 43l-16 -37h-38z" />
    <glyph glyph-name="t" unicode="t" horiz-adv-x="340" 
d="M85 390h-55v42q53 10 92 49t56 94h45l-2 -140h102v-45h-102l-2 -253l-1 -28q0 -26 7.5 -42t27.5 -16q18 0 31 14.5l25 28.5l35 -29q-28 -39 -60.5 -57t-79.5 -18q-60 0 -91.5 28.5t-31.5 88.5v28z" />
    <glyph glyph-name="u" unicode="u" horiz-adv-x="600" 
d="M378 73h-6q-23 -41 -65 -62.5t-91 -21.5q-138 0 -138 139v19l2 164q0 51 -9 67.5t-53 21.5v35l92 -2l111 2l-1 -9q0 -29 -2 -95.5t-2 -70.5v-103q0 -47 10.5 -72t51.5 -25q43 0 67.5 34t24.5 79q0 32 2.5 80.5t2.5 55.5q0 51 -11 67.5t-57 23.5v35l104 -2l102 2l-4 -301
v-30q0 -25 13 -35t36 -10l17 1v-36l-49 -6.5t-59 -10.5l-82 -18q-3 21 -5 42t-2 42z" />
    <glyph glyph-name="v" unicode="v" horiz-adv-x="531" 
d="M314 151q40 83 59.5 134t22.5 77q0 21 -16 29t-41 8v36l98 -2l79 2v-36q-28 0 -44.5 -18.5t-29.5 -50.5l-57 -129l-49 -106l-23.5 -52t-26.5 -54h-43l-26.5 56t-29.5 66l-90 201q-23 50 -35 68.5t-45 18.5v36l116 -3l146 3v-36q-18 -2 -35 -3q-23 -5 -23 -21
q0 -18 11.5 -42t14.5 -32z" />
    <glyph glyph-name="w" unicode="w" horiz-adv-x="769" 
d="M380 250q-8 -17 -22 -53.5t-20 -53.5l-62 -153h-43l-58 141l-66 168q-27 70 -40.5 85.5t-42.5 15.5v36l141 -2l124 2v-36q-28 0 -45.5 -5t-17.5 -25q0 -33 25 -94l47 -113l63 158l38 99l5 16h41l44 -123l65 -162l46 116t25 96q0 17 -13.5 27t-48.5 10v36l95 -2l85 2v-36
q-33 0 -47.5 -19.5t-32.5 -64.5l-61 -157q-29 -79 -70 -169h-43q-28 58 -50.5 111z" />
    <glyph glyph-name="x" unicode="x" horiz-adv-x="589" 
d="M256 157l-49.5 -51.5t-26.5 -48.5q0 -16 20 -20q25 -2 33 -3v-34l-122 2l-81 -2v35l4 1q56 0 109.5 58.5l85.5 95.5l-138 164q-26 31 -37.5 37.5t-31.5 6.5v37l146 -3l127 3v-35q-14 -1 -30.5 -3t-16.5 -16q0 -11 26 -41.5l47 -54.5q48 48 60 65t12 28q0 17 -16.5 20
t-27.5 3h-6v34l99 -1l96 1v-35q-48 0 -84 -38l-105 -110l127 -151q31 -36 47.5 -50.5t44.5 -14.5v-36l-154 2l-129 -2v34h9q16 0 28 4t12 15q0 16 -27.5 47z" />
    <glyph glyph-name="y" unicode="y" horiz-adv-x="538" 
d="M245 -9q-16 41 -40 93.5l-46 101.5l-51 121q-23 60 -38.5 76t-43.5 16v37l134 -3l127 3v-36h-9q-19 0 -33 -5t-14 -20q0 -31 18 -72.5t30 -66.5l39 -93l52.5 114t32.5 105q0 22 -16 30t-40 8v36l86 -2l90 2v-36q-30 0 -45.5 -19.5t-33.5 -61.5l-44 -101l-57 -124
l-70 -149l-41.5 -87.5t-34 -66.5t-39 -49t-50.5 -18q-26 0 -43 16t-17 42q0 22 17 37t66.5 27t78.5 65z" />
    <glyph glyph-name="z" unicode="z" horiz-adv-x="440" 
d="M18 0v31l123 193l110 170h-25q-73 0 -104.5 -17.5t-48.5 -84.5l-40 -1q0 24 4 72t4 71l371 2l1 -32l-230 -361h50q66 0 98 23.5t46 87.5h40l-9 -153z" />
    <glyph glyph-name="braceleft" unicode="{" 
d="M104 264v25q43 0 59.5 18.5t16.5 65.5l-2 110q0 111 28.5 154.5t130.5 43.5l64 1v-26q-54 0 -79.5 -23.5t-25.5 -98.5v-100q0 -78 -17 -110.5t-89 -45.5q105 -19 105 -127v-170q0 -61 23 -86t83 -25v-27h-17q-108 0 -158 22t-50 117l3 208q0 39 -18.5 56.5t-56.5 17.5z
" />
    <glyph glyph-name="bar" unicode="|" 
d="M198 666h104v-833h-104v833z" />
    <glyph glyph-name="braceright" unicode="}" 
d="M396 289v-25q-75 0 -75 -73l3 -147q0 -117 -25 -158.5t-133 -41.5l-67 -1v27q57 0 81.5 26.5t24.5 84.5l1 129q0 83 16.5 119t87.5 46q-49 11 -77 34t-28 67l-1 169q0 60 -23.5 85.5t-81.5 25.5v26h20q126 0 164.5 -29.5t38.5 -158.5l-2 -116q0 -47 15.5 -68t60.5 -21z
" />
    <glyph glyph-name="asciitilde" unicode="~" horiz-adv-x="667" 
d="M505 734l24 -15q-23 -47 -56.5 -79.5t-75.5 -32.5q-28 0 -81 19.5t-80 19.5q-22 0 -36.5 -10t-38.5 -34l-23 14q29 52 57 82.5t70 30.5q26 0 82.5 -19.5t79.5 -19.5t42 11.5t36 32.5z" />
    <glyph glyph-name="Adieresis" unicode="&#xc4;" horiz-adv-x="751" 
d="M354 682h49l15 -39l88 -215l105 -260q30 -70 52 -99.5t73 -29.5v-39l-185 3l-161 -3v38q35 0 60.5 7t25.5 32q0 28 -13.5 61l-26.5 64l-1 5h-224q-18 -39 -27 -67t-9 -44q0 -34 23 -46.5t61 -12.5v-38l-133 3l-111 -2v37q40 7 65.5 27t57.5 95zM230 255h186l-90 234
l-24 -60zM329 779q0 -26 -19.5 -43.5t-46.5 -17.5t-46 18t-19 44t19 46t46 20t46.5 -19.5t19.5 -47.5zM553 779q0 -26 -20 -44t-46 -18q-27 0 -46 18t-19 46q0 26 18.5 45.5t46.5 19.5q27 0 46.5 -19.5t19.5 -47.5z" />
    <glyph glyph-name="Aring" unicode="&#xc5;" horiz-adv-x="751" 
d="M354 682h49l15 -39l88 -215l105 -260q30 -70 52 -99.5t73 -29.5v-39l-185 3l-161 -3v38q35 0 60.5 7t25.5 32q0 28 -13.5 61l-26.5 64l-1 5h-224q-18 -39 -27 -67t-9 -44q0 -34 23 -46.5t61 -12.5v-38l-133 3l-111 -2v37q40 7 65.5 27t57.5 95zM230 255h186l-90 234
l-24 -60zM468 804q0 -37 -28.5 -62.5t-66.5 -25.5t-63.5 27.5t-25.5 66.5q0 38 28.5 63.5t67.5 25.5q37 0 62.5 -28.5t25.5 -66.5zM416 805q0 16 -10.5 28.5t-27.5 12.5q-16 0 -28.5 -10.5t-12.5 -27.5t10.5 -29.5t27.5 -12.5t29 11t12 28z" />
    <glyph glyph-name="Ccedilla" unicode="&#xc7;" horiz-adv-x="715" 
d="M588 617l15 55h44l4 -98l4 -115h-44q-19 77 -66 124t-123 47q-105 0 -156 -91t-51 -204q0 -124 48.5 -210t163.5 -86q79 0 128 54t65 136h45l-2 -123l2 -106h-45l-21 59q-42 -37 -98.5 -56.5t-115.5 -19.5q-158 0 -253.5 95.5t-95.5 254.5q0 150 105 250t256 100
q53 0 99.5 -16.5t91.5 -49.5zM397 0l-10 -39q36 -5 62.5 -30t26.5 -61q0 -45 -35 -74t-81 -29q-23 0 -45.5 6t-50.5 18l20 43q30 -14 60 -14q18 0 32.5 12.5t14.5 31.5q0 22 -19 32.5t-50 18.5l22 85h53z" />
    <glyph glyph-name="Eacute" unicode="&#xc9;" horiz-adv-x="660" 
d="M284 321l-1 -117q0 -89 19 -123t101 -34q83 0 126.5 33t55.5 115h41q0 -41 -2.5 -104t-2.5 -72l1 -19l-116 -1l-193 3q-46 0 -140 -1t-141 -1v37q46 0 64.5 12t23.5 33t6.5 57.5t1.5 50.5v24l1 259v24v36q-3 25 -6 47.5t-28 35.5t-62 13v39q53 0 176.5 -2t131.5 -2l240 3
v-26q0 -37 0.5 -71t4.5 -78l-43 1q-15 70 -53 97.5t-112 27.5l-71 -2q-13 0 -17.5 -8t-4.5 -22v-12l-1 -206l24 1q58 0 80 24.5t34 86.5h42q0 -22 -2 -73.5t-2 -54.5q0 -32 2.5 -82.5t2.5 -57.5l-42 -1q-12 67 -40.5 88.5t-98.5 21.5zM296 857l161 -1v-25l-253 -125z" />
    <glyph glyph-name="Ntilde" unicode="&#xd1;" horiz-adv-x="824" 
d="M136 561q-22 33 -43 48t-58 19v40l103 -3l108 3l123.5 -137l133.5 -153.5l143 -166.5v201l-1 84q0 82 -24.5 107.5t-70.5 25.5v39l126 -2l114 2v-39q-58 0 -76 -37t-18 -103v-252l-2 -159l-2 -96h-49l-141 168l-316 361v-18v-183l-1 -73l2 -103q0 -50 20 -68t72 -28v-38
l-128 3l-112 -3v38q64 6 80 37.5t16 104.5v36v146v115zM557 832l21 -15q-30 -48 -58 -67.5t-53 -19.5q-24 0 -71 12t-71 12q-18 0 -27 -6.5t-30 -27.5l-23 14q28 50 57 72.5t54 22.5t71 -14t70 -14q17 0 31 8t29 23z" />
    <glyph glyph-name="Odieresis" unicode="&#xd6;" horiz-adv-x="824" 
d="M791 333q0 -156 -110.5 -253t-268.5 -97t-268 96t-110 252q0 152 112 250t266 98q160 0 269.5 -94t109.5 -252zM612 330q0 123 -45.5 212.5t-155.5 89.5t-153.5 -89.5t-43.5 -211.5q0 -121 44 -210.5t154 -89.5q115 0 157.5 85t42.5 214zM365 779q0 -26 -19.5 -43.5
t-46.5 -17.5t-46 18t-19 44t19 46t46 20t46.5 -19.5t19.5 -47.5zM589 779q0 -26 -20 -44t-46 -18q-27 0 -46 18t-19 46q0 26 18.5 45.5t46.5 19.5q27 0 46.5 -19.5t19.5 -47.5z" />
    <glyph glyph-name="Udieresis" unicode="&#xdc;" horiz-adv-x="825" 
d="M29 668q30 0 98.5 -2t73.5 -2q30 0 100 2t75 2v-39q-31 0 -53 -5.5t-30 -23t-10.5 -53t-2.5 -79.5v-31v-161q0 -114 33.5 -169.5t140.5 -55.5q116 0 156 66t40 188v168v11q0 73 -16 109t-80 36v39l121 -2l120 2v-39q-25 0 -46 -8t-31 -25t-14 -45.5t-4 -85.5v-177
q0 -151 -68 -227t-220 -76q-130 0 -208 57.5t-78 183.5l-2 256v34q0 64 -17.5 88.5t-77.5 24.5v39zM366 779q0 -26 -19.5 -43.5t-46.5 -17.5t-46 18t-19 44t19 46t46 20t46.5 -19.5t19.5 -47.5zM590 779q0 -26 -20 -44t-46 -18q-27 0 -46 18t-19 46q0 26 18.5 45.5
t46.5 19.5q27 0 46.5 -19.5t19.5 -47.5z" />
    <glyph glyph-name="aacute" unicode="&#xe1;" horiz-adv-x="495" 
d="M281 50q-29 -29 -65.5 -46.5t-76.5 -17.5q-52 0 -84 29t-32 80q0 61 51 96t105 54.5l81 29.5q24 13 24 45q0 40 -12.5 60.5t-50.5 20.5q-36 0 -62 -55t-61 -55q-25 0 -41.5 15.5t-16.5 40.5q0 52 57 74t118 22q103 0 153 -28t50 -122l-3 -192l-1 -21q0 -8 4 -17t17 -9
q9 0 17.5 5t16.5 13l22 -30q-25 -26 -52 -41t-61 -15q-39 0 -64 14t-33 50zM280 140l1 80q0 15 -7 15q-36 0 -73 -34t-37 -70q0 -30 11.5 -48t39.5 -18q32 0 48.5 21.5t16.5 53.5zM213 645l161 -1v-25l-253 -125z" />
    <glyph glyph-name="agrave" unicode="&#xe0;" horiz-adv-x="495" 
d="M281 50q-29 -29 -65.5 -46.5t-76.5 -17.5q-52 0 -84 29t-32 80q0 61 51 96t105 54.5l81 29.5q24 13 24 45q0 40 -12.5 60.5t-50.5 20.5q-36 0 -62 -55t-61 -55q-25 0 -41.5 15.5t-16.5 40.5q0 52 57 74t118 22q103 0 153 -28t50 -122l-3 -192l-1 -21q0 -8 4 -17t17 -9
q9 0 17.5 5t16.5 13l22 -30q-25 -26 -52 -41t-61 -15q-39 0 -64 14t-33 50zM280 140l1 80q0 15 -7 15q-36 0 -73 -34t-37 -70q0 -30 11.5 -48t39.5 -18q32 0 48.5 21.5t16.5 53.5zM281 645l93 -151l-253 125v25z" />
    <glyph glyph-name="acircumflex" unicode="&#xe2;" horiz-adv-x="495" 
d="M281 50q-29 -29 -65.5 -46.5t-76.5 -17.5q-52 0 -84 29t-32 80q0 61 51 96t105 54.5l81 29.5q24 13 24 45q0 40 -12.5 60.5t-50.5 20.5q-36 0 -62 -55t-61 -55q-25 0 -41.5 15.5t-16.5 40.5q0 52 57 74t118 22q103 0 153 -28t50 -122l-3 -192l-1 -21q0 -8 4 -17t17 -9
q9 0 17.5 5t16.5 13l22 -30q-25 -26 -52 -41t-61 -15q-39 0 -64 14t-33 50zM280 140l1 80q0 15 -7 15q-36 0 -73 -34t-37 -70q0 -30 11.5 -48t39.5 -18q32 0 48.5 21.5t16.5 53.5zM390 522l-31 -31l-112 80l-112 -78l-30 31l142 141z" />
    <glyph glyph-name="adieresis" unicode="&#xe4;" horiz-adv-x="495" 
d="M281 50q-29 -29 -65.5 -46.5t-76.5 -17.5q-52 0 -84 29t-32 80q0 61 51 96t105 54.5l81 29.5q24 13 24 45q0 40 -12.5 60.5t-50.5 20.5q-36 0 -62 -55t-61 -55q-25 0 -41.5 15.5t-16.5 40.5q0 52 57 74t118 22q103 0 153 -28t50 -122l-3 -192l-1 -21q0 -8 4 -17t17 -9
q9 0 17.5 5t16.5 13l22 -30q-25 -26 -52 -41t-61 -15q-39 0 -64 14t-33 50zM280 140l1 80q0 15 -7 15q-36 0 -73 -34t-37 -70q0 -30 11.5 -48t39.5 -18q32 0 48.5 21.5t16.5 53.5zM201 578q0 -26 -19.5 -43.5t-46.5 -17.5t-46 18t-19 44t19 46t46 20t46.5 -19.5t19.5 -47.5z
M425 578q0 -26 -20 -44t-46 -18q-27 0 -46 18t-19 46q0 26 18.5 45.5t46.5 19.5q27 0 46.5 -19.5t19.5 -47.5z" />
    <glyph glyph-name="atilde" unicode="&#xe3;" horiz-adv-x="495" 
d="M281 50q-29 -29 -65.5 -46.5t-76.5 -17.5q-52 0 -84 29t-32 80q0 61 51 96t105 54.5l81 29.5q24 13 24 45q0 40 -12.5 60.5t-50.5 20.5q-36 0 -62 -55t-61 -55q-25 0 -41.5 15.5t-16.5 40.5q0 52 57 74t118 22q103 0 153 -28t50 -122l-3 -192l-1 -21q0 -8 4 -17t17 -9
q9 0 17.5 5t16.5 13l22 -30q-25 -26 -52 -41t-61 -15q-39 0 -64 14t-33 50zM280 140l1 80q0 15 -7 15q-36 0 -73 -34t-37 -70q0 -30 11.5 -48t39.5 -18q32 0 48.5 21.5t16.5 53.5zM393 632l21 -15q-30 -48 -58 -67.5t-53 -19.5q-24 0 -71 12t-71 12q-18 0 -27 -6.5
t-30 -27.5l-23 14q28 50 57 72.5t54 22.5t71 -14t70 -14q17 0 31 8t29 23z" />
    <glyph glyph-name="aring" unicode="&#xe5;" horiz-adv-x="495" 
d="M281 50q-29 -29 -65.5 -46.5t-76.5 -17.5q-52 0 -84 29t-32 80q0 61 51 96t105 54.5l81 29.5q24 13 24 45q0 40 -12.5 60.5t-50.5 20.5q-36 0 -62 -55t-61 -55q-25 0 -41.5 15.5t-16.5 40.5q0 52 57 74t118 22q103 0 153 -28t50 -122l-3 -192l-1 -21q0 -8 4 -17t17 -9
q9 0 17.5 5t16.5 13l22 -30q-25 -26 -52 -41t-61 -15q-39 0 -64 14t-33 50zM280 140l1 80q0 15 -7 15q-36 0 -73 -34t-37 -70q0 -30 11.5 -48t39.5 -18q32 0 48.5 21.5t16.5 53.5zM339 578q0 -37 -28.5 -62.5t-66.5 -25.5t-63.5 27.5t-25.5 66.5q0 38 28.5 63.5t67.5 25.5
q37 0 62.5 -28.5t25.5 -66.5zM287 579q0 16 -10.5 28.5t-27.5 12.5q-16 0 -28.5 -10.5t-12.5 -27.5t10.5 -29.5t27.5 -12.5t29 11t12 28z" />
    <glyph glyph-name="ccedilla" unicode="&#xe7;" horiz-adv-x="489" 
d="M450 85q-32 -48 -86 -73.5t-114 -25.5q-101 0 -162.5 61.5t-61.5 163.5q0 98 69.5 165.5t169.5 67.5q63 0 121.5 -21t58.5 -72q0 -24 -15.5 -41.5t-39.5 -17.5q-36 0 -63.5 54.5t-62.5 54.5q-54 0 -70.5 -58t-16.5 -131q0 -70 27.5 -119t90.5 -49q37 0 68 18.5t53 50.5z
M277 0l-10 -39q36 -5 62.5 -30t26.5 -61q0 -45 -35 -74t-81 -29q-23 0 -45.5 6t-50.5 18l20 43q30 -14 60 -14q18 0 32.5 12.5t14.5 31.5q0 22 -19 32.5t-50 18.5l22 85h53z" />
    <glyph glyph-name="eacute" unicode="&#xe9;" horiz-adv-x="498" 
d="M179 236l-1 -8q0 -80 30.5 -131t105.5 -51q36 0 66.5 17.5t50.5 48.5l35 -28q-34 -48 -83 -73t-108 -25q-101 0 -174 58.5t-73 158.5q0 105 67 175t172 70q88 0 147 -50.5t59 -137.5q0 -16 -2.5 -20t-16.5 -4h-275zM184 281h137q24 0 24 22q0 40 -20.5 71t-58.5 31
q-41 0 -63.5 -37t-22.5 -82zM215 645l161 -1v-25l-253 -125z" />
    <glyph glyph-name="egrave" unicode="&#xe8;" horiz-adv-x="498" 
d="M179 236l-1 -8q0 -80 30.5 -131t105.5 -51q36 0 66.5 17.5t50.5 48.5l35 -28q-34 -48 -83 -73t-108 -25q-101 0 -174 58.5t-73 158.5q0 105 67 175t172 70q88 0 147 -50.5t59 -137.5q0 -16 -2.5 -20t-16.5 -4h-275zM184 281h137q24 0 24 22q0 40 -20.5 71t-58.5 31
q-41 0 -63.5 -37t-22.5 -82zM283 645l93 -151l-253 125v25z" />
    <glyph glyph-name="ecircumflex" unicode="&#xea;" horiz-adv-x="498" 
d="M179 236l-1 -8q0 -80 30.5 -131t105.5 -51q36 0 66.5 17.5t50.5 48.5l35 -28q-34 -48 -83 -73t-108 -25q-101 0 -174 58.5t-73 158.5q0 105 67 175t172 70q88 0 147 -50.5t59 -137.5q0 -16 -2.5 -20t-16.5 -4h-275zM184 281h137q24 0 24 22q0 40 -20.5 71t-58.5 31
q-41 0 -63.5 -37t-22.5 -82zM417 522l-31 -31l-112 80l-112 -78l-30 31l142 141z" />
    <glyph glyph-name="edieresis" unicode="&#xeb;" horiz-adv-x="498" 
d="M179 236l-1 -8q0 -80 30.5 -131t105.5 -51q36 0 66.5 17.5t50.5 48.5l35 -28q-34 -48 -83 -73t-108 -25q-101 0 -174 58.5t-73 158.5q0 105 67 175t172 70q88 0 147 -50.5t59 -137.5q0 -16 -2.5 -20t-16.5 -4h-275zM184 281h137q24 0 24 22q0 40 -20.5 71t-58.5 31
q-41 0 -63.5 -37t-22.5 -82zM203 578q0 -26 -19.5 -43.5t-46.5 -17.5t-46 18t-19 44t19 46t46 20t46.5 -19.5t19.5 -47.5zM427 578q0 -26 -20 -44t-46 -18q-27 0 -46 18t-19 46q0 26 18.5 45.5t46.5 19.5q27 0 46.5 -19.5t19.5 -47.5z" />
    <glyph glyph-name="iacute" unicode="&#xed;" horiz-adv-x="313" 
d="M26 417l92 9q16 3 59.5 14t54.5 11l1 -27l-1 -32l-1 -273q0 -48 12 -65.5t57 -17.5v-36l-152 3l-122 -3v35q42 5 55 15.5t13 49.5v27v165q0 50 -11 66.5t-57 22.5v36zM123 645l161 -1v-25l-253 -125z" />
    <glyph glyph-name="igrave" unicode="&#xec;" horiz-adv-x="313" 
d="M26 417l92 9q16 3 59.5 14t54.5 11l1 -27l-1 -32l-1 -273q0 -48 12 -65.5t57 -17.5v-36l-152 3l-122 -3v35q42 5 55 15.5t13 49.5v27v165q0 50 -11 66.5t-57 22.5v36zM191 645l93 -151l-253 125v25z" />
    <glyph glyph-name="icircumflex" unicode="&#xee;" horiz-adv-x="313" 
d="M26 417l92 9q16 3 59.5 14t54.5 11l1 -27l-1 -32l-1 -273q0 -48 12 -65.5t57 -17.5v-36l-152 3l-122 -3v35q42 5 55 15.5t13 49.5v27v165q0 50 -11 66.5t-57 22.5v36zM301 522l-31 -31l-112 80l-112 -78l-30 31l142 141z" />
    <glyph glyph-name="idieresis" unicode="&#xef;" horiz-adv-x="313" 
d="M26 417l92 9q16 3 59.5 14t54.5 11l1 -27l-1 -32l-1 -273q0 -48 12 -65.5t57 -17.5v-36l-152 3l-122 -3v35q42 5 55 15.5t13 49.5v27v165q0 50 -11 66.5t-57 22.5v36zM107 579q0 -26 -19.5 -43.5t-46.5 -17.5t-46 18t-19 44t19 46t46 20t46.5 -19.5t19.5 -47.5zM331 579
q0 -26 -20 -44t-46 -18q-27 0 -46 18t-19 46q0 26 18.5 45.5t46.5 19.5q27 0 46.5 -19.5t19.5 -47.5z" />
    <glyph glyph-name="ntilde" unicode="&#xf1;" horiz-adv-x="607" 
d="M28 413q53 6 96.5 14t86.5 22h7l4 -45.5t2 -40.5h4q24 40 68 60.5t93 20.5q74 0 105.5 -40t31.5 -116v-29l-3 -140l-1 -27q0 -36 14 -46.5t50 -10.5v-35l-132 2l-126 -3v34q35 0 46.5 10.5t11.5 42.5l1 41v127v16q0 49 -11 77.5t-50 28.5q-56 0 -77 -46t-21 -109v-107
q0 -43 11 -62t50 -19v-34q-23 0 -70 2t-71 2q-21 0 -69 -2t-51 -2v35q39 4 51.5 13.5t12.5 44.5l1 48v128v11q0 32 -1.5 48.5t-10 31t-25.5 16l-28 2.5v36zM449 632l21 -15q-30 -48 -58 -67.5t-53 -19.5q-24 0 -71 12t-71 12q-18 0 -27 -6.5t-30 -27.5l-23 14q28 50 57 72.5
t54 22.5t71 -14t70 -14q17 0 31 8t29 23z" />
    <glyph glyph-name="oacute" unicode="&#xf3;" horiz-adv-x="549" 
d="M524 218q0 -99 -75 -165t-175 -66q-106 0 -178 63.5t-72 168.5q0 96 75.5 161.5t173.5 65.5q99 0 175 -65t76 -163zM373 218q0 78 -18.5 132.5t-80.5 54.5q-59 0 -79 -57.5t-20 -130.5q0 -79 18 -133.5t80 -54.5t81 56t19 133zM246 645l161 -1v-25l-253 -125z" />
    <glyph glyph-name="ograve" unicode="&#xf2;" horiz-adv-x="549" 
d="M524 218q0 -99 -75 -165t-175 -66q-106 0 -178 63.5t-72 168.5q0 96 75.5 161.5t173.5 65.5q99 0 175 -65t76 -163zM373 218q0 78 -18.5 132.5t-80.5 54.5q-59 0 -79 -57.5t-20 -130.5q0 -79 18 -133.5t80 -54.5t81 56t19 133zM319 645l93 -151l-253 125v25z" />
    <glyph glyph-name="ocircumflex" unicode="&#xf4;" horiz-adv-x="549" 
d="M524 218q0 -99 -75 -165t-175 -66q-106 0 -178 63.5t-72 168.5q0 96 75.5 161.5t173.5 65.5q99 0 175 -65t76 -163zM373 218q0 78 -18.5 132.5t-80.5 54.5q-59 0 -79 -57.5t-20 -130.5q0 -79 18 -133.5t80 -54.5t81 56t19 133zM433 522l-31 -31l-112 80l-112 -78l-30 31
l142 141z" />
    <glyph glyph-name="odieresis" unicode="&#xf6;" horiz-adv-x="549" 
d="M524 218q0 -99 -75 -165t-175 -66q-106 0 -178 63.5t-72 168.5q0 96 75.5 161.5t173.5 65.5q99 0 175 -65t76 -163zM373 218q0 78 -18.5 132.5t-80.5 54.5q-59 0 -79 -57.5t-20 -130.5q0 -79 18 -133.5t80 -54.5t81 56t19 133zM239 579q0 -26 -19.5 -43.5t-46.5 -17.5
t-46 18t-19 44t19 46t46 20t46.5 -19.5t19.5 -47.5zM463 579q0 -26 -20 -44t-46 -18q-27 0 -46 18t-19 46q0 26 18.5 45.5t46.5 19.5q27 0 46.5 -19.5t19.5 -47.5z" />
    <glyph glyph-name="otilde" unicode="&#xf5;" horiz-adv-x="549" 
d="M524 218q0 -99 -75 -165t-175 -66q-106 0 -178 63.5t-72 168.5q0 96 75.5 161.5t173.5 65.5q99 0 175 -65t76 -163zM373 218q0 78 -18.5 132.5t-80.5 54.5q-59 0 -79 -57.5t-20 -130.5q0 -79 18 -133.5t80 -54.5t81 56t19 133zM426 632l21 -15q-30 -48 -58 -67.5
t-53 -19.5q-24 0 -71 12t-71 12q-18 0 -27 -6.5t-30 -27.5l-23 14q28 50 57 72.5t54 22.5t71 -14t70 -14q17 0 31 8t29 23z" />
    <glyph glyph-name="uacute" unicode="&#xfa;" horiz-adv-x="600" 
d="M378 73h-6q-23 -41 -65 -62.5t-91 -21.5q-138 0 -138 139v19l2 164q0 51 -9 67.5t-53 21.5v35l92 -2l111 2l-1 -9q0 -29 -2 -95.5t-2 -70.5v-103q0 -47 10.5 -72t51.5 -25q43 0 67.5 34t24.5 79q0 32 2.5 80.5t2.5 55.5q0 51 -11 67.5t-57 23.5v35l104 -2l102 2l-4 -301
v-30q0 -25 13 -35t36 -10l17 1v-36l-49 -6.5t-59 -10.5l-82 -18q-3 21 -5 42t-2 42zM266 646l161 -1v-25l-253 -125z" />
    <glyph glyph-name="ugrave" unicode="&#xf9;" horiz-adv-x="600" 
d="M378 73h-6q-23 -41 -65 -62.5t-91 -21.5q-138 0 -138 139v19l2 164q0 51 -9 67.5t-53 21.5v35l92 -2l111 2l-1 -9q0 -29 -2 -95.5t-2 -70.5v-103q0 -47 10.5 -72t51.5 -25q43 0 67.5 34t24.5 79q0 32 2.5 80.5t2.5 55.5q0 51 -11 67.5t-57 23.5v35l104 -2l102 2l-4 -301
v-30q0 -25 13 -35t36 -10l17 1v-36l-49 -6.5t-59 -10.5l-82 -18q-3 21 -5 42t-2 42zM334 646l93 -151l-253 125v25z" />
    <glyph glyph-name="ucircumflex" unicode="&#xfb;" horiz-adv-x="600" 
d="M378 73h-6q-23 -41 -65 -62.5t-91 -21.5q-138 0 -138 139v19l2 164q0 51 -9 67.5t-53 21.5v35l92 -2l111 2l-1 -9q0 -29 -2 -95.5t-2 -70.5v-103q0 -47 10.5 -72t51.5 -25q43 0 67.5 34t24.5 79q0 32 2.5 80.5t2.5 55.5q0 51 -11 67.5t-57 23.5v35l104 -2l102 2l-4 -301
v-30q0 -25 13 -35t36 -10l17 1v-36l-49 -6.5t-59 -10.5l-82 -18q-3 21 -5 42t-2 42zM443 522l-31 -31l-112 80l-112 -78l-30 31l142 141z" />
    <glyph glyph-name="udieresis" unicode="&#xfc;" horiz-adv-x="600" 
d="M378 73h-6q-23 -41 -65 -62.5t-91 -21.5q-138 0 -138 139v19l2 164q0 51 -9 67.5t-53 21.5v35l92 -2l111 2l-1 -9q0 -29 -2 -95.5t-2 -70.5v-103q0 -47 10.5 -72t51.5 -25q43 0 67.5 34t24.5 79q0 32 2.5 80.5t2.5 55.5q0 51 -11 67.5t-57 23.5v35l104 -2l102 2l-4 -301
v-30q0 -25 13 -35t36 -10l17 1v-36l-49 -6.5t-59 -10.5l-82 -18q-3 21 -5 42t-2 42zM254 579q0 -26 -19.5 -43.5t-46.5 -17.5t-46 18t-19 44t19 46t46 20t46.5 -19.5t19.5 -47.5zM478 579q0 -26 -20 -44t-46 -18q-27 0 -46 18t-19 46q0 26 18.5 45.5t46.5 19.5
q27 0 46.5 -19.5t19.5 -47.5z" />
    <glyph glyph-name="dagger" unicode="&#x2020;" horiz-adv-x="476" 
d="M257 -133h-34q0 78 -6 234.5t-6 182.5q0 18 -3.5 56.5t-3.5 52.5q0 24 9 76t9 69l-119 -38q-29 0 -49 13.5t-20 41.5q0 25 20 39t47 14q19 0 61.5 -18t58.5 -18l-38 158q0 30 14.5 50t42.5 20t43 -21.5t15 -50.5q0 -25 -19 -79.5t-19 -75.5q20 0 61 17.5t58 17.5
q26 0 45 -14.5t19 -39.5t-19 -39.5t-45 -14.5q-20 0 -67.5 18.5t-54.5 19.5q0 -21 9 -75.5t9 -75.5v-13v-11q0 -44 -4 -80q0 -69 -7 -208t-7 -208z" />
    <glyph glyph-name="degree" unicode="&#xb0;" horiz-adv-x="453" 
d="M255 646q39 -6 65.5 -37.5t26.5 -70.5q0 -45 -32.5 -78.5t-77.5 -33.5t-78.5 33.5t-33.5 78.5q0 46 33 78t79 32zM183 536q0 -21 15.5 -36.5t37.5 -15.5t37.5 14.5t15.5 37.5q0 22 -16 38t-38 16q-21 0 -36.5 -16.5t-15.5 -37.5z" />
    <glyph glyph-name="cent" unicode="&#xa2;" horiz-adv-x="550" 
d="M314 666v-94l11 1q50 0 101.5 -25.5t51.5 -71.5q0 -23 -16.5 -39.5t-38.5 -16.5q-35 0 -60 50t-50 57l2 -355q86 0 135 68l34 -27q-32 -45 -70 -66t-98 -32l1 -115h-38v114q-102 0 -160.5 61.5t-58.5 165.5q0 93 62.5 156t156.5 76v93h35zM279 527q-40 -16 -54.5 -62.5
t-14.5 -102.5q0 -65 13 -110.5t56 -68.5v344z" />
    <glyph glyph-name="sterling" unicode="&#xa3;" horiz-adv-x="551" 
d="M156 370q-9 28 -15 58t-6 58q0 85 54 140t140 55q42 0 73.5 -6t56 -22t39.5 -37.5t15 -43.5t-15 -39t-38 -17q-39 0 -57 63t-67 63q-37 0 -61 -24t-24 -61q0 -38 19.5 -106t21.5 -80h133l-1 -49l-123 1q0 -14 2.5 -36t2.5 -26q0 -41 -4.5 -73.5t-17.5 -63.5
q50 -14 77 -18.5t52 -4.5q34 0 59 9t37.5 28.5t19.5 19.5q10 0 10 -18q0 -60 -37.5 -109t-95.5 -49q-41 0 -67.5 16.5t-84.5 63.5q-22 -35 -56.5 -57t-73.5 -22q-42 0 -70.5 25.5t-28.5 68.5q0 37 28 64t65 27q26 0 48 -4.5t43 -14.5q0 40 -10 79.5t-29 93.5h-118v48h104z
M203 99q-13 9 -34 19t-49 10q-22 0 -39.5 -14.5t-17.5 -36.5q0 -24 16 -40t41 -16q31 0 53 23t30 55z" />
    <glyph glyph-name="section" unicode="&#xa7;" horiz-adv-x="485" 
d="M351 205q25 -28 38 -53.5t13 -58.5q0 -67 -51.5 -105t-120.5 -38q-66 0 -123 34t-57 95q0 21 14.5 35.5t34.5 14.5q34 0 53.5 -67.5t76.5 -67.5q32 0 57.5 17t25.5 48q0 26 -14.5 43.5t-46 37.5t-67.5 45.5t-80.5 62t-44.5 110.5q0 38 20 72.5t54 58.5q-47 39 -47 95
q0 60 49.5 96.5t111.5 36.5q57 0 107.5 -28t50.5 -80q0 -17 -11.5 -29.5t-27.5 -12.5q-31 0 -56 54.5t-65 54.5q-29 0 -49 -16t-20 -44q0 -43 59 -84l117 -80q62 -53 62 -119q0 -37 -17 -70.5t-46 -57.5zM170 459q-13 -14 -19.5 -28t-6.5 -32q0 -23 12.5 -44t33.5 -36
l122 -87q10 13 15.5 27.5t5.5 29.5q0 21 -12 41.5t-48 49.5z" />
    <glyph glyph-name="bullet" unicode="&#x2022;" horiz-adv-x="600" 
d="M198 286q0 40 28 68t68 28t69 -28t29 -68t-28 -68t-70 -28q-40 0 -68 28t-28 68z" />
    <glyph glyph-name="paragraph" unicode="&#xb6;" horiz-adv-x="635" 
d="M571 666v-33h-13q-39 0 -47.5 -9.5t-8.5 -43.5v-18v-565v-20q0 -18 5.5 -22.5t20.5 -4.5h32v-33h-135v714h-70v-714h-159v33h37q22 0 33.5 5t11.5 24v23v340h-23h-14q-33 0 -53.5 2.5t-54 16t-59 54.5t-25.5 91q0 42 20.5 79.5t50.5 54.5t60 21.5t67 4.5h48h276zM278 633
h-22q-54 0 -70 -35.5t-16 -98.5q0 -45 19.5 -82.5t60.5 -37.5h28v254z" />
    <glyph glyph-name="germandbls" unicode="&#xdf;" horiz-adv-x="597" 
d="M384 409v-4q82 -16 132.5 -70.5t50.5 -135.5q0 -89 -51.5 -148.5t-139.5 -59.5q-46 0 -79.5 22.5t-33.5 67.5q0 22 13.5 39t35.5 19q22 0 37 -13t15 -35q0 -11 -8 -25t-8 -21q0 -9 7 -14t16 -5q15 0 25.5 10.5t16.5 31.5t8.5 56t2.5 73q0 79 -18.5 129.5t-83.5 50.5
l-11 -1q-15 0 -23 4t-8 18q0 8 49.5 26t49.5 93q0 60 -15.5 100t-64.5 40q-47 0 -61.5 -39t-14.5 -97l-1 -60v-461l-109 3l-95 -3v35q44 5 55.5 17t11.5 55v11v307q0 65 6.5 109.5t32.5 83.5t73 60.5t99 21.5q84 0 152 -38t68 -116q0 -53 -38.5 -89t-93.5 -48z" />
    <glyph glyph-name="registered" unicode="&#xae;" horiz-adv-x="804" 
d="M500 152l-99 173h-35v-116q0 -20 6.5 -29t26.5 -9h17v-19h-200v19q28 0 38 6.5t10 31.5v249q0 20 -6.5 29t-26.5 9h-18v20h206q62 0 104.5 -21.5t42.5 -78.5q0 -35 -17 -55.5t-52 -36.5l76 -129q14 -24 43 -24v-19h-116zM366 343q52 0 74.5 13t22.5 60q0 45 -24 58
t-73 13v-144zM402 -13q-143 0 -245 102t-102 245q0 142 102 244t245 102t244.5 -101.5t101.5 -244.5t-101 -245t-245 -102zM402 30q125 0 214 89t89 215q0 125 -89 214t-214 89t-214.5 -88.5t-89.5 -214.5t89 -215t215 -89z" />
    <glyph glyph-name="copyright" unicode="&#xa9;" horiz-adv-x="804" 
d="M548 523v-122h-18q-12 37 -39 63t-64 26q-51 0 -74 -49t-23 -107q0 -83 26 -118.5t68 -35.5q39 0 69.5 24t56.5 64v-48q-26 -33 -65 -53.5t-80 -20.5q-82 0 -136 50t-54 131q0 84 53 139t137 55q28 0 61.5 -11.5t40.5 -11.5q9 0 14.5 9t7.5 14zM402 -13q-143 0 -245 102
t-102 245q0 142 102 244t245 102t244.5 -101.5t101.5 -244.5t-101 -245t-245 -102zM402 30q125 0 214 89t89 215q0 125 -89 214t-214 89t-214.5 -88.5t-89.5 -214.5t89 -215t215 -89z" />
    <glyph glyph-name="trademark" unicode="&#x2122;" horiz-adv-x="1047" 
d="M19 669q35 0 118 -2t89 -2q47 0 120 2.5t85 2.5l4 -120h-33q0 44 -27.5 62.5t-74.5 18.5h-8q-14 0 -14 -11v-10v-246q0 -34 4.5 -50.5t50.5 -16.5h9v-30l-122 2l-111 -2v29q43 0 54 12t11 53v244v13q0 14 -11 14l-33 -2q-36 0 -56.5 -21.5t-25.5 -59.5h-34zM577 553v-173
q0 -41 8 -62.5t42 -21.5h9v-29l-84 1l-73 -1v29l11 1q32 0 40 19.5t8 59.5l2 242l-3 3q-19 16 -39 16l-19 1v30l83 -2l73 2l56 -129l62 -140l54 125.5l58 143.5l69 -1l88 1v-30h-12q-33 0 -42 -14t-9 -46v-20v-199q0 -38 9 -50.5t44 -12.5h10v-29l-119 2l-103 -2v29h10
q31 0 39.5 11.5t8.5 46.5v194l-59 -141l-62 -140h-36l-52 126z" />
    <glyph glyph-name="acute" unicode="&#xb4;" 
d="M216 645l161 -1v-25l-253 -125z" />
    <glyph glyph-name="dieresis" unicode="&#xa8;" 
d="M204 579q0 -26 -19.5 -43.5t-46.5 -17.5t-46 18t-19 44t19 46t46 20t46.5 -19.5t19.5 -47.5zM428 579q0 -26 -20 -44t-46 -18q-27 0 -46 18t-19 46q0 26 18.5 45.5t46.5 19.5q27 0 46.5 -19.5t19.5 -47.5z" />
    <glyph glyph-name="AE" unicode="&#xc6;" horiz-adv-x="934" 
d="M229 285l-69 -147q-7 -15 -10.5 -25.5t-3.5 -24.5q0 -28 21 -37.5t59 -13.5v-37l-120 3q-20 0 -66 -2t-49 -2v38q52 0 70 23.5t54 99.5l182 385l13 28.5t5 20.5q0 25 -34 30l-54 4l1 39q46 0 123.5 -2.5t92.5 -2.5q82 0 225.5 3.5t185.5 3.5q0 -29 3 -87t3 -88l-42 -1
q-19 77 -58 101t-123 24h-42q-20 0 -26.5 -7.5t-6.5 -28.5l-3 -213q67 0 102.5 24.5t35.5 87.5l42 1l-3 -132l3 -138l-42 1q0 60 -37 85t-101 25l-2 -132q0 -85 26.5 -113.5t110.5 -28.5q74 0 112.5 36t54.5 111h40q0 -33 -3 -98t-3 -98h-88l-158 2l-95 1q-43 0 -141.5 -2
t-104.5 -2l1 39q58 0 76 20t18 79v19l-1 129h-174zM251 333h153v263q0 19 -13 20q-10 0 -17 -17z" />
    <glyph glyph-name="Oslash" unicode="&#xd8;" horiz-adv-x="823" 
d="M670 735l-59 -99q84 -46 132 -126t48 -177q0 -158 -109.5 -254t-270.5 -96q-86 0 -170 32l-57 -95h-53l69 117q-80 50 -123 128t-43 173q0 149 113 245.5t265 96.5q46 0 80.5 -5.5t75.5 -20.5l49 82zM529 590q-50 42 -118 42q-108 0 -152 -88t-44 -209q0 -64 8 -112.5
t32 -94.5zM284 86q53 -55 129 -55q113 0 156 87t43 213q0 64 -11 119t-39 102z" />
    <glyph glyph-name="plusminus" unicode="&#xb1;" 
d="M7 404h202v201h81v-201h203v-78h-203v-193h-81v193h-202v78zM7 93h486v-78h-486v78z" />
    <glyph glyph-name="yen" unicode="&#xa5;" horiz-adv-x="564" 
d="M356 251h165v-42h-165v-108q0 -52 17.5 -66t69.5 -14v-21h-304v21q54 0 71 14t17 66v108h-166v42h166v12l-41 83h-125v42h107l-78 177q-14 33 -29.5 55t-60.5 26v21h265v-21h-8q-22 0 -37 -4t-15 -19q0 -9 5.5 -20.5t7.5 -16.5l118 -266l103 233l11 26t6 27
q0 23 -20 31.5t-47 8.5v21h175v-21q-32 -5 -52 -29.5t-37 -64.5l-71 -164h117v-42h-134l-31 -61v-34z" />
    <glyph glyph-name="mu" unicode="&#xb5;" horiz-adv-x="557" 
d="M489 457v-323v-20q0 -31 7.5 -47.5t35.5 -16.5q6 0 14 1.5t12 2.5v-20l-133 -45l-8 -1q-23 0 -34 18t-22 50q-38 -43 -64 -57t-54 -14q-46 0 -70.5 19.5t-42.5 63.5q0 -43 22.5 -120.5t22.5 -86.5q0 -26 -19 -42t-46 -16q-31 0 -49.5 16.5t-18.5 46.5q0 12 2 24t20 100.5
t18 248.5v218h138v-287q0 -66 12.5 -94.5t40.5 -28.5q24 0 42 13.5t37 38.5v358h137z" />
    <glyph glyph-name="ordfeminine" unicode="&#xaa;" horiz-adv-x="339" 
d="M320 335v-44h-293v44h293zM186 431q-38 -38 -86 -38q-30 0 -49.5 17.5t-19.5 47.5q0 44 37 63.5t73 33.5q31 10 38.5 14.5t7.5 23.5q0 25 -7 37t-30 12q-22 0 -38 -33t-36 -33q-35 0 -35 33q0 32 33.5 45t71.5 13q61 0 91.5 -17t30.5 -73l-2 -115l-1 -13q2 -16 13 -16
t20 11l14 -18q-15 -16 -31 -24.5t-37 -8.5q-25 0 -39.5 8t-18.5 30zM185 485l1 48q0 9 -5 9q-21 0 -43.5 -20.5t-22.5 -41.5q0 -19 7 -29.5t24 -10.5q19 0 29 13t10 32z" />
    <glyph glyph-name="ordmasculine" unicode="&#xba;" horiz-adv-x="339" 
d="M316 335v-44h-293v44h293zM318 528q0 -60 -44.5 -99.5t-105.5 -39.5q-63 0 -106.5 38.5t-43.5 100.5q0 58 45.5 97.5t104.5 39.5q60 0 105 -39t45 -98zM228 528q0 45 -11.5 78.5t-48.5 33.5q-42 0 -50.5 -42t-8.5 -71q0 -47 10.5 -80t48.5 -33q37 0 48.5 33.5t11.5 80.5z
" />
    <glyph glyph-name="ae" unicode="&#xe6;" horiz-adv-x="716" 
d="M411 236q0 -105 33 -147.5t88 -42.5q36 0 66.5 17.5t56.5 49.5l34 -29q-39 -47 -84 -72.5t-102 -25.5q-65 0 -107.5 19.5t-77.5 70.5q-61 -55 -99 -72t-79 -17q-46 0 -78 27t-32 71q0 75 52 108t121.5 60t76.5 35t7 37q0 37 -11 58.5t-46 21.5q-40 0 -63.5 -53.5
t-58.5 -57.5q-25 0 -43 14t-18 39q0 54 57 76.5t120 22.5q43 0 77.5 -12.5t62.5 -41.5q23 26 59 40.5t73 14.5q86 0 143.5 -50.5t57.5 -136.5q0 -25 -20 -25zM412 281h133q14 0 19 3.5t6 12.5q0 41 -20 75t-59 34q-42 0 -60.5 -39t-18.5 -86zM281 237q-48 -14 -81 -39.5
t-33 -68.5q0 -26 13 -43.5t38 -17.5q22 0 42 13t39 35q-9 26 -13.5 57t-4.5 64z" />
    <glyph glyph-name="oslash" unicode="&#xf8;" horiz-adv-x="549" 
d="M471 513l-64 -102q56 -39 86.5 -86.5t30.5 -112.5q0 -103 -74.5 -164t-179.5 -61q-32 0 -58 5.5t-54 18.5l-53 -86h-42l64 104q-47 31 -75 83t-28 109q0 99 76.5 162t176.5 63q51 0 96 -18l54 87zM340 372q-15 16 -30.5 24.5t-35.5 8.5q-60 0 -79 -55.5t-19 -129.5
q0 -41 1.5 -56t6.5 -44zM199 76q22 -47 76 -47q59 0 78 51t19 123q0 35 -3 65.5t-11 63.5z" />
    <glyph glyph-name="questiondown" unicode="&#xbf;" horiz-adv-x="439" 
d="M197 341q0 35 24.5 61.5t59.5 26.5t59 -26t24 -61q0 -33 -24.5 -56.5t-58.5 -23.5t-59 23t-25 56zM304 209v-189q0 -16 -14 -16l-46 1q-61 0 -99 -15.5t-38 -67.5q0 -39 26 -66t65 -27q15 0 51.5 7.5t51.5 7.5q27 0 48 -13t21 -40q0 -28 -22 -42.5t-52 -14.5
q-100 0 -175 71t-75 171q0 76 52 113t132 37l32 -1v84h42z" />
    <glyph glyph-name="exclamdown" unicode="&#xa1;" horiz-adv-x="327" 
d="M247 334q0 36 -24 62t-61 26q-35 0 -58.5 -25.5t-23.5 -61.5q0 -33 24.5 -56.5t58.5 -23.5t59 23t25 56zM143 203q0 -73 -6.5 -132t-20.5 -104.5l-23.5 -78t-9.5 -60.5q0 -39 20.5 -70t57.5 -31q41 0 62.5 28.5t21.5 70.5q0 23 -3 41t-18 71t-26.5 123.5t-11.5 141.5h-43
z" />
    <glyph glyph-name="logicalnot" unicode="&#xac;" 
d="M303 0v195h-274v72h442v-267h-168z" />
    <glyph glyph-name="florin" unicode="&#x192;" horiz-adv-x="551" 
d="M422 450l-9 -43l-103 1l-5 -23l-32 -136q-29 -121 -52 -191t-74.5 -131t-136.5 -61q-36 0 -64 19t-28 53q0 20 13.5 33.5t34.5 13.5q28 0 43 -40.5t31 -40.5q29 0 43 38.5t29 106.5l35 155l25 110t25 94l-84 1l9 42l85 1q30 96 56 150.5t76.5 94t131.5 39.5q46 0 88 -20
t42 -59q0 -21 -14.5 -35.5t-35.5 -14.5q-32 0 -52 46t-44 46q-46 0 -75 -70.5t-59 -177.5z" />
    <glyph glyph-name="guillemotleft" unicode="&#xab;" horiz-adv-x="479" 
d="M219 419l34 -38l-100 -132l91 -137l-33 -35l-185 174zM419 419l34 -38l-100 -132l91 -137l-33 -35l-185 174z" />
    <glyph glyph-name="guillemotright" unicode="&#xbb;" horiz-adv-x="479" 
d="M260 419l193 -168l-185 -174l-33 35l91 137l-100 132zM60 419l193 -168l-185 -174l-33 35l91 137l-100 132z" />
    <glyph glyph-name="ellipsis" unicode="&#x2026;" horiz-adv-x="828" 
d="M221 75q0 -36 -24 -62t-61 -26q-35 0 -58.5 25.5t-23.5 61.5q0 33 24.5 56.5t58.5 23.5t59 -23t25 -56zM497 75q0 -36 -24 -62t-61 -26q-35 0 -58.5 25.5t-23.5 61.5q0 33 24.5 56.5t58.5 23.5t59 -23t25 -56zM773 75q0 -36 -24 -62t-61 -26q-35 0 -58.5 25.5t-23.5 61.5
q0 33 24.5 56.5t58.5 23.5t59 -23t25 -56z" />
    <glyph glyph-name="nonbreakingspace" unicode="&#xa0;" 
 />
    <glyph glyph-name="Agrave" unicode="&#xc0;" horiz-adv-x="751" 
d="M354 682h49l15 -39l88 -215l105 -260q30 -70 52 -99.5t73 -29.5v-39l-185 3l-161 -3v38q35 0 60.5 7t25.5 32q0 28 -13.5 61l-26.5 64l-1 5h-224q-18 -39 -27 -67t-9 -44q0 -34 23 -46.5t61 -12.5v-38l-133 3l-111 -2v37q40 7 65.5 27t57.5 95zM230 255h186l-90 234
l-24 -60zM410 857l93 -151l-253 125v25z" />
    <glyph glyph-name="Atilde" unicode="&#xc3;" horiz-adv-x="751" 
d="M354 682h49l15 -39l88 -215l105 -260q30 -70 52 -99.5t73 -29.5v-39l-185 3l-161 -3v38q35 0 60.5 7t25.5 32q0 28 -13.5 61l-26.5 64l-1 5h-224q-18 -39 -27 -67t-9 -44q0 -34 23 -46.5t61 -12.5v-38l-133 3l-111 -2v37q40 7 65.5 27t57.5 95zM230 255h186l-90 234
l-24 -60zM521 832l21 -15q-30 -48 -58 -67.5t-53 -19.5q-24 0 -71 12t-71 12q-18 0 -27 -6.5t-30 -27.5l-23 14q28 50 57 72.5t54 22.5t71 -14t70 -14q17 0 31 8t29 23z" />
    <glyph glyph-name="Otilde" unicode="&#xd5;" horiz-adv-x="824" 
d="M791 333q0 -156 -110.5 -253t-268.5 -97t-268 96t-110 252q0 152 112 250t266 98q160 0 269.5 -94t109.5 -252zM612 330q0 123 -45.5 212.5t-155.5 89.5t-153.5 -89.5t-43.5 -211.5q0 -121 44 -210.5t154 -89.5q115 0 157.5 85t42.5 214zM557 832l21 -15
q-30 -48 -58 -67.5t-53 -19.5q-24 0 -71 12t-71 12q-18 0 -27 -6.5t-30 -27.5l-23 14q28 50 57 72.5t54 22.5t71 -14t70 -14q17 0 31 8t29 23z" />
    <glyph glyph-name="OE" unicode="&#x152;" horiz-adv-x="991" 
d="M642 369q61 0 94 26.5t33 84.5h42l-2 -123q0 -25 2 -73t2 -72h-42q-7 63 -35 86.5t-94 23.5v-149q0 -71 23 -97.5t91 -26.5q75 0 118.5 36t50.5 112h42l-6 -197h-94l-235 3q-48 0 -146 -3.5t-133 -3.5q-152 0 -243 89t-91 242q0 150 96 246t246 96q29 0 89 -3t90 -3
l130 2l187 4h34l28 1l5 -176h-42q-11 71 -52.5 97t-113.5 26l-43 -1q-18 0 -24 -4t-6 -20zM491 280v129v27q0 47 -2.5 79.5t-14 58t-41.5 36t-67 10.5q-105 0 -139 -82.5t-34 -207.5q0 -156 46.5 -221t125.5 -65q78 0 101 36.5t23 123.5z" />
    <glyph glyph-name="oe" unicode="&#x153;" horiz-adv-x="823" 
d="M505 235q0 -79 29.5 -134t101.5 -55q35 0 66 18t54 49l34 -29q-71 -97 -196 -97q-45 0 -88.5 15.5t-73.5 46.5q-37 -30 -75 -46.5t-83 -16.5q-105 0 -177 63t-72 167q0 99 71 164t172 65q48 0 91 -15t73 -48l6 5q35 29 71.5 44t79.5 15q91 0 150.5 -49t59.5 -139
q0 -14 -2.5 -19t-15.5 -5zM507 280h139q24 0 24 20q0 39 -20.5 71.5t-58.5 32.5q-41 0 -56.5 -32.5t-27.5 -91.5zM367 225q0 73 -17.5 125.5t-75.5 52.5q-59 0 -78 -56.5t-19 -129.5q0 -80 16 -135t75 -55q64 0 81.5 53.5t17.5 135.5v9z" />
    <glyph glyph-name="endash" unicode="&#x2013;" horiz-adv-x="512" 
d="M40 275h432v-117h-432v117z" />
    <glyph glyph-name="emdash" unicode="&#x2014;" horiz-adv-x="779" 
d="M40 275h699v-117h-699v117z" />
    <glyph glyph-name="quotedblleft" unicode="&#x201c;" horiz-adv-x="505" 
d="M339 498q13 9 24.5 14t26.5 5q31 0 51 -21t20 -52q0 -32 -23 -55t-56 -23q-46 0 -73.5 31.5t-27.5 77.5q0 71 45 125.5t116 81.5l14 -29q-51 -27 -84 -65.5t-33 -89.5zM106 498q13 9 24.5 14t26.5 5q30 0 50.5 -21.5t20.5 -51.5q0 -32 -23 -55t-56 -23q-46 0 -74 31
t-28 78q0 70 46 125.5t116 81.5l14 -29q-50 -25 -83.5 -65t-33.5 -90z" />
    <glyph glyph-name="quotedblright" unicode="&#x201d;" horiz-adv-x="506" 
d="M170 550q-13 -9 -24.5 -14t-26.5 -5q-31 0 -51 21t-20 52q0 32 23 55t56 23q46 0 73.5 -31t27.5 -78q0 -70 -45.5 -125t-115.5 -82l-14 29q53 30 85 67t32 88zM403 550q-13 -9 -24.5 -14t-26.5 -5q-30 0 -50.5 21.5t-20.5 51.5q0 32 23 55t56 23q47 0 74.5 -31t27.5 -78
q0 -70 -46 -125t-116 -82l-14 29q51 27 84 65.5t33 89.5z" />
    <glyph glyph-name="quoteleft" unicode="&#x2018;" horiz-adv-x="272" 
d="M111 498q13 9 24.5 14t26.5 5q30 0 50.5 -21.5t20.5 -51.5q0 -32 -23 -55t-56 -23q-46 0 -74 31t-28 78q0 70 46 125.5t116 81.5l14 -29q-50 -25 -83.5 -65t-33.5 -90z" />
    <glyph glyph-name="quoteright" unicode="&#x2019;" horiz-adv-x="272" 
d="M170 550q-13 -9 -24.5 -14t-26.5 -5q-31 0 -51 21t-20 52q0 32 23 55t56 23q46 0 73.5 -31t27.5 -78q0 -70 -45.5 -125t-115.5 -82l-14 29q53 30 85 67t32 88z" />
    <glyph glyph-name="divide" unicode="&#xf7;" 
d="M7 401h486v-78h-486v78zM250 592q24 0 41.5 -17.5t17.5 -42.5q0 -24 -17.5 -41.5t-41.5 -17.5t-41.5 17.5t-17.5 41.5t17 42t42 18zM250 251q24 0 41.5 -17.5t17.5 -42.5q0 -24 -17.5 -41.5t-41.5 -17.5t-42 17t-18 42t17.5 42.5t42.5 17.5z" />
    <glyph glyph-name="ydieresis" unicode="&#xff;" horiz-adv-x="538" 
d="M245 -9q-16 41 -40 93.5l-46 101.5l-51 121q-23 60 -38.5 76t-43.5 16v37l134 -3l127 3v-36h-9q-19 0 -33 -5t-14 -20q0 -31 18 -72.5t30 -66.5l39 -93l52.5 114t32.5 105q0 22 -16 30t-40 8v36l86 -2l90 2v-36q-30 0 -45.5 -19.5t-33.5 -61.5l-44 -101l-57 -124
l-70 -149l-41.5 -87.5t-34 -66.5t-39 -49t-50.5 -18q-26 0 -43 16t-17 42q0 22 17 37t66.5 27t78.5 65zM223 579q0 -26 -19.5 -43.5t-46.5 -17.5t-46 18t-19 44t19 46t46 20t46.5 -19.5t19.5 -47.5zM447 579q0 -26 -20 -44t-46 -18q-27 0 -46 18t-19 46q0 26 18.5 45.5
t46.5 19.5q27 0 46.5 -19.5t19.5 -47.5z" />
    <glyph glyph-name="Ydieresis" unicode="&#x178;" horiz-adv-x="698" 
d="M271 253l-74 133l-64 119l-45 80q-31 43 -75 43v39l159 -3l168 3v-39h-14q-26 0 -44.5 -6.5t-18.5 -26.5q0 -33 48.5 -118l89.5 -153l86 137t51 118q0 28 -21.5 38.5t-53.5 10.5v39l118 -1l106 3v-40q-35 -5 -49.5 -18t-39.5 -54l-103 -175l-59 -94l-9 -17v-134
q0 -58 21 -78t78 -20v-39l-177 3l-176 -3v38q60 0 79 23.5t19 84.5v107zM303 779q0 -26 -19.5 -43.5t-46.5 -17.5t-46 18t-19 44t19 46t46 20t46.5 -19.5t19.5 -47.5zM527 779q0 -26 -20 -44t-46 -18q-27 0 -46 18t-19 46q0 26 18.5 45.5t46.5 19.5q27 0 46.5 -19.5
t19.5 -47.5z" />
    <glyph glyph-name="fraction" unicode="&#x2215;" horiz-adv-x="90" 
d="M275 667l-396 -667h-55l397 667h54z" />
    <glyph glyph-name="currency" unicode="&#xa4;" horiz-adv-x="667" 
d="M30 91l98 98q-23 41 -34.5 76t-11.5 79q0 38 12 75.5t33 75.5l-98 98l52 52l99 -99q68 45 153 45q38 0 75 -12t75 -34l103 102l52 -52l-104 -104q22 -39 32.5 -75.5t10.5 -79.5q0 -37 -11.5 -72t-31.5 -70l102 -102l-52 -53l-100 100q-37 -21 -75 -33.5t-77 -12.5
t-76.5 11.5t-74.5 33.5l-99 -99zM466 342q0 54 -39.5 93.5t-93.5 39.5q-55 0 -95 -39t-40 -94t40 -94t95 -39q54 0 93.5 39.5t39.5 93.5z" />
    <glyph glyph-name="guilsinglleft" unicode="&#x2039;" horiz-adv-x="279" 
d="M219 419l34 -38l-100 -132l91 -137l-33 -35l-185 174z" />
    <glyph glyph-name="guilsinglright" unicode="&#x203a;" horiz-adv-x="279" 
d="M60 419l193 -168l-185 -174l-33 35l91 137l-100 132z" />
    <glyph glyph-name="daggerdbl" unicode="&#x2021;" horiz-adv-x="476" 
d="M254 -126l-38 -1l2 200l-1 64l-6 153q0 23 2.5 59t2.5 42q-20 0 -56 -14.5t-54 -14.5q-22 0 -40.5 12.5t-18.5 34.5q0 23 16 35.5t40 12.5q20 0 57 -15t57 -15l-3 42v29.5t5 38.5q-20 0 -56 -15t-56 -15q-24 0 -42 12.5t-18 36.5q0 21 17 34t39 13q20 0 58 -15t58 -15
q0 26 -17.5 82t-17.5 71q0 29 14 48.5t41 19.5t41 -20.5t14 -49.5q0 -21 -18 -71t-18 -80q19 0 56 14t57 14q23 0 40.5 -12.5t17.5 -35.5q0 -20 -17.5 -33.5t-38.5 -13.5q-20 0 -60 15.5t-55 15.5q0 -13 2.5 -33t2.5 -23l-3 -55q19 0 56 14t57 14q23 0 39 -14t16 -37
q0 -21 -16.5 -34t-38.5 -13q-16 0 -56 17t-59 17l1 -6q0 -8 2 -29.5t2 -23.5q0 -46 -4 -138t-4 -138v-109z" />
    <glyph glyph-name="periodcentered" unicode="&#xb7;" horiz-adv-x="242" 
d="M52 308q0 28 21 48t50 20t50.5 -20.5t21.5 -50.5q0 -29 -20.5 -50.5t-50.5 -21.5t-51 22t-21 53z" />
    <glyph glyph-name="periodcentered" unicode="&#x2219;" horiz-adv-x="242" 
d="M52 308q0 28 21 48t50 20t50.5 -20.5t21.5 -50.5q0 -29 -20.5 -50.5t-50.5 -21.5t-51 22t-21 53z" />
    <glyph glyph-name="quotesinglbase" unicode="&#x201a;" horiz-adv-x="281" 
d="M168 5q-18 -13 -40 -13q-33 0 -55.5 22.5t-22.5 56.5q0 36 24 59t59 23q43 0 70 -34t27 -78q0 -74 -48 -135t-121 -86l-16 29q53 28 88 66.5t35 89.5z" />
    <glyph glyph-name="quotedblbase" unicode="&#x201e;" horiz-adv-x="506" 
d="M170 10q-13 -9 -24.5 -14t-26.5 -5q-31 0 -51 21t-20 52q0 32 23 55t56 23q46 0 73.5 -31t27.5 -78q0 -70 -45.5 -125t-115.5 -82l-14 29q53 30 85 67t32 88zM403 10q-13 -9 -24.5 -14t-26.5 -5q-30 0 -50.5 21.5t-20.5 51.5q0 32 23 55t56 23q47 0 74.5 -31t27.5 -78
q0 -70 -46 -125t-116 -82l-14 29q51 27 84 65.5t33 89.5z" />
    <glyph glyph-name="perthousand" unicode="&#x2030;" horiz-adv-x="1120" 
d="M192 679q71 0 114.5 -56t43.5 -129q0 -72 -43.5 -125t-114.5 -53t-114.5 52.5t-43.5 125.5q0 72 44 128.5t114 56.5zM137 565v-136q0 -41 10.5 -65.5t44.5 -24.5q33 0 44 25.5t11 64.5v136q0 37 -11.5 63t-43.5 26t-43.5 -26t-11.5 -63zM590 667l-397 -695h-35l398 695
h34zM572 358q71 0 114.5 -56t43.5 -128t-43.5 -125t-114.5 -53t-114.5 52t-43.5 126q0 71 44 127.5t114 56.5zM517 244v-136q0 -40 10.5 -65t44.5 -25q33 0 44 25.5t11 64.5v136q0 38 -11 63.5t-44 25.5q-31 0 -43 -26t-12 -63zM929 358q71 0 114.5 -56t43.5 -128
q0 -73 -43 -125.5t-115 -52.5q-71 0 -114.5 52t-43.5 126q0 72 43.5 128t114.5 56zM874 244v-136q0 -40 10.5 -65t44.5 -25q33 0 44 25.5t11 64.5v136q0 38 -11 63.5t-44 25.5q-31 0 -43 -26t-12 -63z" />
    <glyph glyph-name="Acircumflex" unicode="&#xc2;" horiz-adv-x="751" 
d="M354 682h49l15 -39l88 -215l105 -260q30 -70 52 -99.5t73 -29.5v-39l-185 3l-161 -3v38q35 0 60.5 7t25.5 32q0 28 -13.5 61l-26.5 64l-1 5h-224q-18 -39 -27 -67t-9 -44q0 -34 23 -46.5t61 -12.5v-38l-133 3l-111 -2v37q40 7 65.5 27t57.5 95zM230 255h186l-90 234
l-24 -60zM519 727l-31 -31l-112 80l-112 -78l-30 31l142 141z" />
    <glyph glyph-name="Ecircumflex" unicode="&#xca;" horiz-adv-x="660" 
d="M284 321l-1 -117q0 -89 19 -123t101 -34q83 0 126.5 33t55.5 115h41q0 -41 -2.5 -104t-2.5 -72l1 -19l-116 -1l-193 3q-46 0 -140 -1t-141 -1v37q46 0 64.5 12t23.5 33t6.5 57.5t1.5 50.5v24l1 259v24v36q-3 25 -6 47.5t-28 35.5t-62 13v39q53 0 176.5 -2t131.5 -2l240 3
v-26q0 -37 0.5 -71t4.5 -78l-43 1q-15 70 -53 97.5t-112 27.5l-71 -2q-13 0 -17.5 -8t-4.5 -22v-12l-1 -206l24 1q58 0 80 24.5t34 86.5h42q0 -22 -2 -73.5t-2 -54.5q0 -32 2.5 -82.5t2.5 -57.5l-42 -1q-12 67 -40.5 88.5t-98.5 21.5zM473 727l-31 -31l-112 80l-112 -78
l-30 31l142 141z" />
    <glyph glyph-name="Aacute" unicode="&#xc1;" horiz-adv-x="751" 
d="M354 682h49l15 -39l88 -215l105 -260q30 -70 52 -99.5t73 -29.5v-39l-185 3l-161 -3v38q35 0 60.5 7t25.5 32q0 28 -13.5 61l-26.5 64l-1 5h-224q-18 -39 -27 -67t-9 -44q0 -34 23 -46.5t61 -12.5v-38l-133 3l-111 -2v37q40 7 65.5 27t57.5 95zM230 255h186l-90 234
l-24 -60zM342 857l161 -1v-25l-253 -125z" />
    <glyph glyph-name="Edieresis" unicode="&#xcb;" horiz-adv-x="660" 
d="M284 321l-1 -117q0 -89 19 -123t101 -34q83 0 126.5 33t55.5 115h41q0 -41 -2.5 -104t-2.5 -72l1 -19l-116 -1l-193 3q-46 0 -140 -1t-141 -1v37q46 0 64.5 12t23.5 33t6.5 57.5t1.5 50.5v24l1 259v24v36q-3 25 -6 47.5t-28 35.5t-62 13v39q53 0 176.5 -2t131.5 -2l240 3
v-26q0 -37 0.5 -71t4.5 -78l-43 1q-15 70 -53 97.5t-112 27.5l-71 -2q-13 0 -17.5 -8t-4.5 -22v-12l-1 -206l24 1q58 0 80 24.5t34 86.5h42q0 -22 -2 -73.5t-2 -54.5q0 -32 2.5 -82.5t2.5 -57.5l-42 -1q-12 67 -40.5 88.5t-98.5 21.5zM283 779q0 -26 -19.5 -43.5
t-46.5 -17.5t-46 18t-19 44t19 46t46 20t46.5 -19.5t19.5 -47.5zM507 779q0 -26 -20 -44t-46 -18q-27 0 -46 18t-19 46q0 26 18.5 45.5t46.5 19.5q27 0 46.5 -19.5t19.5 -47.5z" />
    <glyph glyph-name="Egrave" unicode="&#xc8;" horiz-adv-x="660" 
d="M284 321l-1 -117q0 -89 19 -123t101 -34q83 0 126.5 33t55.5 115h41q0 -41 -2.5 -104t-2.5 -72l1 -19l-116 -1l-193 3q-46 0 -140 -1t-141 -1v37q46 0 64.5 12t23.5 33t6.5 57.5t1.5 50.5v24l1 259v24v36q-3 25 -6 47.5t-28 35.5t-62 13v39q53 0 176.5 -2t131.5 -2l240 3
v-26q0 -37 0.5 -71t4.5 -78l-43 1q-15 70 -53 97.5t-112 27.5l-71 -2q-13 0 -17.5 -8t-4.5 -22v-12l-1 -206l24 1q58 0 80 24.5t34 86.5h42q0 -22 -2 -73.5t-2 -54.5q0 -32 2.5 -82.5t2.5 -57.5l-42 -1q-12 67 -40.5 88.5t-98.5 21.5zM364 857l93 -151l-253 125v25z" />
    <glyph glyph-name="Iacute" unicode="&#xcd;" horiz-adv-x="440" 
d="M40 0v39q63 0 83 25.5t20 89.5v32v325q0 74 -17.5 96t-85.5 22v39q31 0 104 -2t78 -2q31 0 103 2t77 2v-39l-21 -1q-54 0 -68.5 -21t-14.5 -108v-309l-1 -42q0 -64 21.5 -86.5t83.5 -22.5v-39l-189 3zM186 857l161 -1v-25l-253 -125z" />
    <glyph glyph-name="Icircumflex" unicode="&#xce;" horiz-adv-x="440" 
d="M40 0v39q63 0 83 25.5t20 89.5v32v325q0 74 -17.5 96t-85.5 22v39q31 0 104 -2t78 -2q31 0 103 2t77 2v-39l-21 -1q-54 0 -68.5 -21t-14.5 -108v-309l-1 -42q0 -64 21.5 -86.5t83.5 -22.5v-39l-189 3zM363 727l-31 -31l-112 80l-112 -78l-30 31l142 141z" />
    <glyph glyph-name="Idieresis" unicode="&#xcf;" horiz-adv-x="440" 
d="M40 0v39q63 0 83 25.5t20 89.5v32v325q0 74 -17.5 96t-85.5 22v39q31 0 104 -2t78 -2q31 0 103 2t77 2v-39l-21 -1q-54 0 -68.5 -21t-14.5 -108v-309l-1 -42q0 -64 21.5 -86.5t83.5 -22.5v-39l-189 3zM174 779q0 -26 -19.5 -43.5t-46.5 -17.5t-46 18t-19 44t19 46t46 20
t46.5 -19.5t19.5 -47.5zM398 779q0 -26 -20 -44t-46 -18q-27 0 -46 18t-19 46q0 26 18.5 45.5t46.5 19.5q27 0 46.5 -19.5t19.5 -47.5z" />
    <glyph glyph-name="Igrave" unicode="&#xcc;" horiz-adv-x="440" 
d="M40 0v39q63 0 83 25.5t20 89.5v32v325q0 74 -17.5 96t-85.5 22v39q31 0 104 -2t78 -2q31 0 103 2t77 2v-39l-21 -1q-54 0 -68.5 -21t-14.5 -108v-309l-1 -42q0 -64 21.5 -86.5t83.5 -22.5v-39l-189 3zM254 857l93 -151l-253 125v25z" />
    <glyph glyph-name="Oacute" unicode="&#xd3;" horiz-adv-x="824" 
d="M791 333q0 -156 -110.5 -253t-268.5 -97t-268 96t-110 252q0 152 112 250t266 98q160 0 269.5 -94t109.5 -252zM612 330q0 123 -45.5 212.5t-155.5 89.5t-153.5 -89.5t-43.5 -211.5q0 -121 44 -210.5t154 -89.5q115 0 157.5 85t42.5 214zM378 857l161 -1v-25l-253 -125z
" />
    <glyph glyph-name="Ocircumflex" unicode="&#xd4;" horiz-adv-x="824" 
d="M791 333q0 -156 -110.5 -253t-268.5 -97t-268 96t-110 252q0 152 112 250t266 98q160 0 269.5 -94t109.5 -252zM612 330q0 123 -45.5 212.5t-155.5 89.5t-153.5 -89.5t-43.5 -211.5q0 -121 44 -210.5t154 -89.5q115 0 157.5 85t42.5 214zM555 727l-31 -31l-112 80
l-112 -78l-30 31l142 141z" />
    <glyph glyph-name="Ograve" unicode="&#xd2;" horiz-adv-x="824" 
d="M791 333q0 -156 -110.5 -253t-268.5 -97t-268 96t-110 252q0 152 112 250t266 98q160 0 269.5 -94t109.5 -252zM612 330q0 123 -45.5 212.5t-155.5 89.5t-153.5 -89.5t-43.5 -211.5q0 -121 44 -210.5t154 -89.5q115 0 157.5 85t42.5 214zM446 857l93 -151l-253 125v25z
" />
    <glyph glyph-name="Uacute" unicode="&#xda;" horiz-adv-x="825" 
d="M29 668q30 0 98.5 -2t73.5 -2q30 0 100 2t75 2v-39q-31 0 -53 -5.5t-30 -23t-10.5 -53t-2.5 -79.5v-31v-161q0 -114 33.5 -169.5t140.5 -55.5q116 0 156 66t40 188v168v11q0 73 -16 109t-80 36v39l121 -2l120 2v-39q-25 0 -46 -8t-31 -25t-14 -45.5t-4 -85.5v-177
q0 -151 -68 -227t-220 -76q-130 0 -208 57.5t-78 183.5l-2 256v34q0 64 -17.5 88.5t-77.5 24.5v39zM379 857l161 -1v-25l-253 -125z" />
    <glyph glyph-name="Ucircumflex" unicode="&#xdb;" horiz-adv-x="825" 
d="M29 668q30 0 98.5 -2t73.5 -2q30 0 100 2t75 2v-39q-31 0 -53 -5.5t-30 -23t-10.5 -53t-2.5 -79.5v-31v-161q0 -114 33.5 -169.5t140.5 -55.5q116 0 156 66t40 188v168v11q0 73 -16 109t-80 36v39l121 -2l120 2v-39q-25 0 -46 -8t-31 -25t-14 -45.5t-4 -85.5v-177
q0 -151 -68 -227t-220 -76q-130 0 -208 57.5t-78 183.5l-2 256v34q0 64 -17.5 88.5t-77.5 24.5v39zM556 728l-31 -31l-112 80l-112 -78l-30 31l142 141z" />
    <glyph glyph-name="Ugrave" unicode="&#xd9;" horiz-adv-x="825" 
d="M29 668q30 0 98.5 -2t73.5 -2q30 0 100 2t75 2v-39q-31 0 -53 -5.5t-30 -23t-10.5 -53t-2.5 -79.5v-31v-161q0 -114 33.5 -169.5t140.5 -55.5q116 0 156 66t40 188v168v11q0 73 -16 109t-80 36v39l121 -2l120 2v-39q-25 0 -46 -8t-31 -25t-14 -45.5t-4 -85.5v-177
q0 -151 -68 -227t-220 -76q-130 0 -208 57.5t-78 183.5l-2 256v34q0 64 -17.5 88.5t-77.5 24.5v39zM447 857l93 -151l-253 125v25z" />
    <glyph glyph-name="dotlessi" unicode="&#x131;" horiz-adv-x="313" 
d="M26 417l92 9q16 3 59.5 14t54.5 11l1 -27l-1 -32l-1 -273q0 -48 12 -65.5t57 -17.5v-36l-152 3l-122 -3v35q42 5 55 15.5t13 49.5v27v165q0 50 -11 66.5t-57 22.5v36z" />
    <glyph glyph-name="circumflex" unicode="&#x2c6;" 
d="M393 522l-31 -31l-112 80l-112 -78l-30 31l142 141z" />
    <glyph glyph-name="tilde" unicode="&#x2dc;" 
d="M396 632l21 -15q-30 -48 -58 -67.5t-53 -19.5q-24 0 -71 12t-71 12q-18 0 -27 -6.5t-30 -27.5l-23 14q28 50 57 72.5t54 22.5t71 -14t70 -14q17 0 31 8t29 23z" />
    <glyph glyph-name="macron" unicode="&#xaf;" 
d="M100 618h299v-70h-299v70z" />
    <glyph glyph-name="macron" unicode="&#x2c9;" 
d="M100 618h299v-70h-299v70z" />
    <glyph glyph-name="breve" unicode="&#x2d8;" 
d="M115 641l52 -1q11 -24 33 -35.5t50 -11.5q30 0 51 10.5t32 36.5l52 1q0 -57 -38 -88t-97 -31t-97 31t-38 88z" />
    <glyph glyph-name="dotaccent" unicode="&#x2d9;" 
d="M316 579q0 -26 -19.5 -43.5t-46.5 -17.5t-46 18t-19 44t19 46t46 20t46.5 -19.5t19.5 -47.5z" />
    <glyph glyph-name="ring" unicode="&#x2da;" 
d="M342 579q0 -37 -28.5 -62.5t-66.5 -25.5t-63.5 27.5t-25.5 66.5q0 38 28.5 63.5t67.5 25.5q37 0 62.5 -28.5t25.5 -66.5zM290 580q0 16 -10.5 28.5t-27.5 12.5q-16 0 -28.5 -10.5t-12.5 -27.5t10.5 -29.5t27.5 -12.5t29 11t12 28z" />
    <glyph glyph-name="cedilla" unicode="&#xb8;" 
d="M277 0l-10 -39q36 -5 62.5 -30t26.5 -61q0 -45 -35 -74t-81 -29q-23 0 -45.5 6t-50.5 18l20 43q30 -14 60 -14q18 0 32.5 12.5t14.5 31.5q0 22 -19 32.5t-50 18.5l22 85h53z" />
    <glyph glyph-name="hungarumlaut" unicode="&#x2ba;" 
d="M129 645l134 -1v-36l-226 -114zM329 645l134 -1v-36l-226 -114z" />
    <glyph glyph-name="ogonek" unicode="&#x2db;" 
d="M309 0q-33 -20 -52 -37.5t-19 -42.5q0 -16 11 -26t27 -10t26 4t48 25v-48q-35 -21 -60 -32.5t-50 -11.5q-36 0 -62.5 18t-26.5 54q0 35 29 63.5t68 43.5h61z" />
    <glyph glyph-name="caron" unicode="&#x2c7;" 
d="M393 633l-143 -142l-142 140l30 32l112 -78l112 80z" />
    <glyph glyph-name="Lslash" unicode="&#x141;" horiz-adv-x="660" 
d="M635 0h-603v38q61 0 78.5 25.5t17.5 89.5l-1 81l-103 -71v70l103 72l1 209q0 75 -13.5 89.5t-82.5 25.5l1 40l180 -3l166 3l-1 -40q-63 0 -78.5 -16.5t-15.5 -81.5l-1 -127l193 130l-1 -70l-192 -133v-111q0 -99 21 -135t112 -36q83 0 123 33.5t58 113.5h45
q0 -38 -3.5 -106.5t-3.5 -89.5z" />
    <glyph glyph-name="lslash" unicode="&#x142;" horiz-adv-x="332" 
d="M232 378v-239l-1 -46q0 -33 18 -45t53 -12l-1 -36l-142 3q-22 0 -66 -2t-66 -2l-1 35q38 6 53 10.5t15 43.5l1 51v157l-71 -45l-1 70l72 48v160v22q0 47 -13.5 65t-56.5 18v36q70 7 105 12t95 23l9 -1l-2 -54v-197l80 53v-76z" />
    <glyph glyph-name="Scaron" unicode="&#x160;" horiz-adv-x="550" 
d="M415 629l12 44h45l6 -187h-46q-12 64 -55 106t-105 42q-40 0 -71.5 -22t-31.5 -62q0 -59 122.5 -119.5t174 -97t51.5 -142.5q0 -94 -70 -150.5t-168 -56.5q-54 0 -99.5 16.5t-81.5 52.5l-14 -53h-45l3 97l-3 113h45q17 -74 62 -125.5t115 -51.5q50 0 86.5 26.5t36.5 75.5
q0 67 -86 113l-162 79q-87 58 -87 155q0 96 60.5 148t158.5 52q83 0 147 -53zM418 839l-143 -142l-142 140l30 32l112 -78l112 80z" />
    <glyph glyph-name="scaron" unicode="&#x161;" horiz-adv-x="439" 
d="M45 141h41q15 -47 53 -79.5t87 -32.5q30 0 51.5 15t21.5 42q0 37 -122 85t-122 143q0 62 45 97.5t110 35.5q63 0 113 -37l16 34h38v-133h-38q-18 42 -48.5 68t-72.5 26q-25 0 -45 -11t-22 -35q0 -36 85 -70.5t124.5 -60t39.5 -98.5q0 -70 -48.5 -106.5t-120.5 -36.5
q-74 0 -129 43l-16 -37h-38zM362 634l-143 -142l-142 140l30 32l112 -78l112 80z" />
    <glyph glyph-name="brokenbar" unicode="&#xa6;" 
d="M198 666h104v-355h-104v355zM198 153h104v-320h-104v320z" />
    <glyph glyph-name="Eth" unicode="&#xd0;" horiz-adv-x="746" 
d="M14 667h333q61 0 95 -5.5t96.5 -28t115 -108t52.5 -192.5q0 -79 -28 -147.5t-81 -111.5t-114.5 -58.5t-135.5 -15.5h-332v21q53 0 71.5 14.5t18.5 65.5v221h-85v39h85v213q0 33 -6.5 52.5t-53.5 19.5h-31v21zM271 629v-268h101v-39h-101v-218v-13q0 -28 7.5 -40.5
t36.5 -12.5h36q98 0 133 84.5t35 198.5q0 175 -52.5 241.5t-145.5 66.5h-50z" />
    <glyph glyph-name="eth" unicode="&#xf0;" horiz-adv-x="521" 
d="M178 521l-21 24l77 65q-20 20 -43 39t-46 32l9 18q31 -10 59 -24.5t58 -32.5l77 66l21 -24l-72 -62q90 -68 141 -174.5t51 -221.5q0 -100 -65 -171t-164 -71q-101 0 -164 69t-63 173q0 97 61 167t157 70q40 0 58 -12t36 -17q-17 43 -38.5 81t-50.5 72zM261 431
q-44 0 -61 -34.5t-22.5 -81t-5.5 -91.5q0 -82 16 -145.5t72 -63.5q46 0 62 37t22 82t6 90q0 52 -5 98.5t-23.5 77.5t-60.5 31z" />
    <glyph glyph-name="Yacute" unicode="&#xdd;" horiz-adv-x="698" 
d="M271 253l-74 133l-64 119l-45 80q-31 43 -75 43v39l159 -3l168 3v-39h-14q-26 0 -44.5 -6.5t-18.5 -26.5q0 -33 48.5 -118l89.5 -153l86 137t51 118q0 28 -21.5 38.5t-53.5 10.5v39l118 -1l106 3v-40q-35 -5 -49.5 -18t-39.5 -54l-103 -175l-59 -94l-9 -17v-134
q0 -58 21 -78t78 -20v-39l-177 3l-176 -3v38q60 0 79 23.5t19 84.5v107zM315 857l161 -1v-25l-253 -125z" />
    <glyph glyph-name="yacute" unicode="&#xfd;" horiz-adv-x="538" 
d="M245 -9q-16 41 -40 93.5l-46 101.5l-51 121q-23 60 -38.5 76t-43.5 16v37l134 -3l127 3v-36h-9q-19 0 -33 -5t-14 -20q0 -31 18 -72.5t30 -66.5l39 -93l52.5 114t32.5 105q0 22 -16 30t-40 8v36l86 -2l90 2v-36q-30 0 -45.5 -19.5t-33.5 -61.5l-44 -101l-57 -124
l-70 -149l-41.5 -87.5t-34 -66.5t-39 -49t-50.5 -18q-26 0 -43 16t-17 42q0 22 17 37t66.5 27t78.5 65zM235 646l161 -1v-25l-253 -125z" />
    <glyph glyph-name="Thorn" unicode="&#xde;" horiz-adv-x="639" 
d="M371 0h-356v21q53 0 71 14.5t18 65.5v465q0 52 -18.5 66t-71.5 14v21h342v-21h-26q-41 0 -51 -15t-10 -57v-35h86q58 0 98.5 -6.5t75.5 -29.5t55.5 -59.5t20.5 -78.5q0 -100 -68.5 -144.5t-173.5 -44.5h-94v-75q0 -44 12 -62t54 -18h36v-21zM269 504v-292h35
q67 0 96.5 38.5t29.5 107.5t-27.5 107.5t-93.5 38.5h-40z" />
    <glyph glyph-name="thorn" unicode="&#xfe;" horiz-adv-x="538" 
d="M208 667v-262q46 64 124 64q85 0 129.5 -69.5t44.5 -160.5q0 -98 -43.5 -174t-135.5 -76q-35 0 -66.5 13.5t-52.5 39.5v-146q0 -40 12 -55t50 -15v-21h-256v21q35 0 46 16t11 54v679v19q0 29 -9 40.5t-35 11.5v21h181zM208 107q5 -30 26.5 -50.5t51.5 -20.5q44 0 59 58.5
t15 140.5l-1 49q0 47 -12.5 85t-50.5 43q-44 0 -66 -31.5t-22 -77.5v-196z" />
    <glyph glyph-name="minus" unicode="&#x2212;" 
d="M7 401h486v-78h-486v78z" />
    <glyph glyph-name="multiply" unicode="&#xd7;" 
d="M102 565l147 -148l148 150l57 -57l-150 -148l149 -148l-55 -55l-147 149l-149 -150l-57 57l150 149l-148 146z" />
    <glyph glyph-name="onesuperior" unicode="&#xb9;" horiz-adv-x="384" 
d="M77 638q49 0 81 6.5t69 27.5h29v-73v-221v-37q0 -42 27 -45t40 -4v-27h-130h-116v30q49 0 60.5 11.5t11.5 47.5v23v157q0 55 -11.5 65.5t-60.5 10.5v28z" />
    <glyph glyph-name="twosuperior" unicode="&#xb2;" horiz-adv-x="384" 
d="M27 256v11q21 42 81 109t86 102t26 78q0 34 -15.5 58t-47.5 24q-21 0 -36 -16t-15 -36q0 -16 7 -27.5t21 -11.5q6 0 10.5 1.5t12.5 9.5q5 0 7 -4t2 -9q0 -24 -19.5 -39.5t-44.5 -15.5q-29 0 -48.5 22.5t-19.5 53.5q0 49 45.5 77t98.5 28q63 0 108 -28t45 -87
q0 -41 -25.5 -72t-66 -55.5t-64 -41.5t-51.5 -42l195 1q10 0 10 -8l-20 -110h-28l1 16q0 13 -9 15l-26 2q-47 0 -125.5 -2.5t-94.5 -2.5z" />
    <glyph glyph-name="threesuperior" unicode="&#xb3;" horiz-adv-x="384" 
d="M212 491q56 -7 91 -28t35 -70q0 -64 -55 -102t-124 -38q-48 0 -87.5 15t-39.5 55q0 17 10.5 28.5t27.5 11.5q27 0 47 -40t45 -40q36 0 51 32t15 73q0 29 -8.5 54t-32.5 25q-14 0 -32.5 -22.5t-31.5 -22.5q-25 0 -25 22q0 12 60.5 49t60.5 89q0 24 -13.5 40.5t-37.5 16.5
q-19 0 -36.5 -12t-17.5 -31q0 -11 7 -17t13 -6q5 0 17 7q4 1 5 -3.5t2 -9.5q0 -20 -16.5 -34.5t-36.5 -14.5q-23 0 -39 15t-16 39q0 48 44 73.5t96 25.5q50 0 89 -17t39 -61q0 -37 -12 -49t-94 -53z" />
    <glyph glyph-name="onehalf" unicode="&#xbd;" horiz-adv-x="858" 
d="M77 638q49 0 81 6.5t69 27.5h29v-73v-221v-32q0 -33 10.5 -43.5t48.5 -10.5h8v-27h-130h-116v30q49 0 60.5 11.5t11.5 47.5v23v157q0 55 -11.5 65.5t-60.5 10.5v28zM660 666l-397 -666h-55l397 666h55zM501 -11v11q21 42 81 109t86 102t26 78q0 34 -15.5 58t-47.5 24
q-21 0 -36 -16t-15 -36q0 -16 7 -27.5t21 -11.5q5 0 12 4l12 7q8 0 8 -13q0 -24 -19.5 -39.5t-43.5 -15.5q-30 0 -49.5 22.5t-19.5 53.5q0 48 46.5 76.5t97.5 28.5q63 0 108 -28t45 -87q0 -41 -25.5 -72t-66 -55.5t-64 -41.5t-51.5 -42l195 1q10 0 10 -8l-20 -110h-28l1 16
q0 13 -9 15l-26 2q-47 0 -125.5 -2.5t-94.5 -2.5z" />
    <glyph glyph-name="onequarter" unicode="&#xbc;" horiz-adv-x="858" 
d="M77 638q49 0 81 6.5t69 27.5h29v-73v-221v-37q0 -42 27 -45t40 -4v-27h-130h-116v30q49 0 60.5 11.5t11.5 47.5v23v157q0 55 -11.5 65.5t-60.5 10.5v28zM660 666l-397 -666h-55l397 666h55zM667 116h-181v38l229 245h55v-47v-194h64v-42h-64l1 -54q0 -23 17.5 -29.5
t45.5 -6.5v-28h-130h-106v28q36 0 53 8.5t17 39.5zM667 158v141l-132 -141h132z" />
    <glyph glyph-name="threequarters" unicode="&#xbe;" horiz-adv-x="858" 
d="M213 490q50 0 88 -25t38 -72q0 -65 -55 -103t-124 -38q-48 0 -87.5 15t-39.5 55q0 17 10.5 28.5t27.5 11.5q27 0 47 -40t45 -40q36 0 51 32.5t15 72.5q0 29 -8.5 54t-32.5 25q-17 0 -34 -21.5t-30 -23.5q-25 0 -25 22q0 13 60.5 49.5t60.5 88.5q0 24 -13.5 41t-37.5 17
q-19 0 -36.5 -12t-17.5 -31q0 -11 7 -17t13 -6l12 3l5 4q7 0 7 -13q0 -21 -16 -35t-37 -14q-23 0 -39 15t-16 38q0 48 44 73.5t96 25.5q51 0 89.5 -17t38.5 -61q0 -37 -12 -49t-94 -53zM660 666l-396 -666h-55l397 666h54zM667 116h-181v38l229 245h55v-47v-194h64v-42h-64
l2 -54q0 -23 16.5 -29.5t45.5 -6.5v-28h-130h-105v28q35 0 52 8.5t17 39.5zM667 158v141l-132 -141h132z" />
  </font>
</defs>
</svg>
